<svg width="512" height="512" version="1.1" xmlns="http://www.w3.org/2000/svg" desc="Created with imagetracer.js version 1.2.6" ><path fill="rgb(0,0,0)" stroke="rgb(0,0,0)" stroke-width="1" opacity="0" d="M 0 0 L 512 0 L 512 330.5 L 511 330.5 L 510 321.5 L 504 305.5 Q 495.7 289.3 482.5 278 Q 471.8 268.7 457.5 263 L 439.5 258 Q 430 259.5 424.5 257 L 420 258 L 385 121 L 410.5 121 Q 420.5 119 425 111.5 L 435 92.5 L 435 85.5 Q 433.4 80.1 425.5 81 L 420 84.5 L 409.5 104 L 350.5 104 L 344 108.5 L 343 114.5 L 347.5 120 L 350 121.5 L 360 157.5 L 361 165.5 Q 342.3 193.3 317.5 215 Q 297 233.5 271.5 247 L 248.5 257 L 229 262 L 176 135 L 212.5 125 L 220 121 L 223 115.5 L 223 106.5 L 217.5 99 L 213.5 97 L 119.5 97 Q 112.3 98.8 109 104.5 L 104 116.5 L 104 121.5 L 107.5 126 L 127.5 138 Q 134.2 141.8 144.5 142 L 146 143.5 L 168 194.5 L 124 265 L 104.5 259 L 85.5 257 L 84.5 258 L 67.5 259 L 49.5 265 Q 32 273.5 20 287.5 Q 4.8 303.8 0.5 331 L 0 0 Z " /><path fill="rgb(0,0,0)" stroke="rgb(0,0,0)" stroke-width="1" opacity="0" d="M 371.5 207 Q 374.5 206.1 373 210.5 L 388 265.5 Q 370 274.5 358 289.5 Q 347.4 302.4 342 320.5 L 339 335.5 L 339 352.5 L 342 368.5 L 349 385.5 Q 356.4 399.1 367.5 409 Q 379.4 419.6 395.5 426 L 410.5 430 L 433.5 431 L 449.5 428 L 470.5 419 Q 483.6 411.1 493 399.5 L 506 378.5 L 510 366.5 L 511.5 357 L 512 512 L 0.5 512 L 0 511.5 L 0 358.5 L 1 358.5 Q 7.3 394.2 31.5 412 Q 44.4 422.6 62.5 428 L 78.5 431 L 93.5 431 L 94.5 430 L 106.5 429 L 123.5 423 Q 139.6 415.1 151 402.5 Q 159.9 392.4 166 379.5 Q 170.4 371.4 171 361 L 219.5 361 L 229.5 371 L 239 375.5 L 239 391 L 224.5 391 L 220 394.5 L 219 401.5 L 222.5 406 L 224.5 407 L 270.5 407 Q 276.8 405.3 275 395.5 L 270.5 391 L 255 391 L 255 375.5 L 256.5 375 Q 267.1 371.6 273 363.5 Q 280 355.5 279 339.5 L 278 334.5 L 271 322 L 264.5 317 L 250 311.5 L 243 293 Q 278.3 284.1 305.5 266 Q 335.8 246.3 360 220.5 L 371.5 207 Z " /><path fill="rgb(0,0,0)" stroke="rgb(0,0,0)" stroke-width="1" opacity="0" d="M 175.5 213 L 221 319.5 L 222 325.5 L 220.5 327 L 171 327 Q 164.1 293.7 140.5 276 L 137 273.5 L 175.5 213 Z " /><path fill="rgb(0,0,0)" stroke="rgb(0,0,0)" stroke-width="1" opacity="0" d="M 77.5 290 L 94.5 290 L 105 293 L 85 327 Q 77.2 327.4 73 332.5 Q 67.8 336.8 69 347.5 Q 70.5 354.4 75.5 358 L 81.5 361 L 138 361.5 Q 133.1 376.1 122.5 385 Q 109.3 398.3 83.5 399 Q 81.8 396.2 75.5 398 L 61.5 393 Q 50.5 386.9 43 377.5 L 34 360.5 L 32 352.5 L 32 336.5 Q 36.3 313.8 51.5 302 Q 61.7 293.2 77.5 290 Z " /><path fill="rgb(0,0,0)" stroke="rgb(0,0,0)" stroke-width="1" opacity="0" d="M 429 290 Q 455.2 292.5 468 309.5 L 478 327.5 L 480 336.5 L 480 352.5 Q 475.1 375.1 459.5 387 Q 447 398.5 423.5 399 L 405.5 395 Q 393.2 389.8 385 380.5 Q 371.7 367.3 371 341.5 L 372 340.5 L 373 329.5 L 378 317.5 L 392.5 301 L 397 299 L 409 347.5 L 414.5 357 Q 418.5 362 428.5 361 Q 436.6 359.6 440 353.5 Q 443.8 348.8 442 338.5 L 429 290 Z " /><path fill="rgb(0,0,0)" stroke="rgb(0,0,0)" stroke-width="1" opacity="0" d="M 119 302 L 120.5 302 L 130 311.5 L 138 326.5 L 104.5 327 L 105 325.5 L 119 302 Z " /><path fill="rgb(86,172,33)" stroke="rgb(86,172,33)" stroke-width="1" opacity="0.9686274509803922" d="M 171.5 136 Q 175.3 135.3 176 137.5 L 228 262 Q 244.7 259.4 258.5 253 L 285.5 239 Q 317 219 341 191.5 L 361.5 164 L 372 200.5 L 372 206.5 L 345.5 235 Q 323.1 256.1 295.5 272 L 263.5 287 L 242 293 L 250 312.5 L 240.5 313 L 236.5 315 L 161 139.5 L 171.5 136 Z " /><path fill="rgb(86,172,33)" stroke="rgb(86,172,33)" stroke-width="1" opacity="0.9686274509803922" d="M 167.5 195 Q 169.8 194.3 169 196.5 L 176 212.5 L 102.5 328 L 84 327.5 L 105 293 Q 107.7 294.1 107 291.5 L 167.5 195 Z " /><path fill="rgb(86,172,33)" stroke="rgb(86,172,33)" stroke-width="1" opacity="0.9686274509803922" d="M 139.5 327 L 171 327.5 L 139.5 328 L 139.5 327 Z " /><path fill="rgb(182,197,52)" stroke="rgb(182,197,52)" stroke-width="1" opacity="0.9725490196078431" d="M 119.5 97 L 213.5 97 L 222 103.5 L 223 115.5 L 220 121 L 212.5 125 L 176 135 L 175.5 137 L 171.5 136 L 161 139.5 L 236.5 315 L 240.5 313 L 250 312.5 L 249 310.5 L 250 310.5 L 251.5 313 L 260.5 315 L 271 322 L 278 334.5 L 279 349.5 Q 276.1 363.1 266.5 370 L 255 375 L 255 391 L 239 391 L 239 375.5 L 237.5 374 L 229.5 371 L 219.5 361 L 81.5 361 L 72 354.5 Q 68 350.1 69 340.5 L 74.5 331 L 83.5 327 L 84.5 328 L 102.5 328 L 103.5 327 L 138.5 327 L 139.5 328 L 170.5 328 L 171.5 327 L 220.5 327 L 222 325.5 L 221 319.5 L 176 215.5 L 176 211.5 L 164 187.5 L 148 147.5 L 144.5 142 Q 134.2 141.8 127.5 138 L 105 123.5 L 104 116.5 L 109 104.5 L 114.5 99 L 119.5 97 Z " /><path fill="rgb(182,197,52)" stroke="rgb(182,197,52)" stroke-width="1" opacity="0.9725490196078431" d="M 351.5 120 L 382.5 120 L 385 121 L 413 231.5 L 419 250.5 L 420 260.5 L 427 287.5 L 431 296.5 L 434 311.5 L 440 330.5 L 442 338.5 L 442 349.5 L 434.5 359 L 428.5 361 L 422.5 361 L 413 355.5 L 409 347.5 L 402 317.5 L 396 298.5 L 397 296.5 L 390 269.5 L 385 256.5 L 381 237.5 L 372 206.5 L 372 200.5 L 370 196.5 L 363 166.5 L 358 153.5 L 350 121.5 L 351.5 120 Z " /><path fill="rgb(182,197,52)" stroke="rgb(182,197,52)" stroke-width="1" opacity="0.9725490196078431" d="M 176.5 138 L 179 143.5 L 178 143.5 L 176.5 138 Z " /><path fill="rgb(182,197,52)" stroke="rgb(182,197,52)" stroke-width="1" opacity="0.9725490196078431" d="M 179.5 145 L 187 162.5 L 186 162.5 L 179 146.5 L 179.5 145 Z " /><path fill="rgb(182,197,52)" stroke="rgb(182,197,52)" stroke-width="1" opacity="0.9725490196078431" d="M 187.5 164 L 190 169.5 L 189 169.5 L 187.5 164 Z " /><path fill="rgb(182,197,52)" stroke="rgb(182,197,52)" stroke-width="1" opacity="0.9725490196078431" d="M 190.5 171 L 193 176.5 L 192 176.5 L 190.5 171 Z " /><path fill="rgb(182,197,52)" stroke="rgb(182,197,52)" stroke-width="1" opacity="0.9725490196078431" d="M 193.5 178 L 195 181.5 L 194 181.5 L 193.5 178 Z " /><path fill="rgb(182,197,52)" stroke="rgb(182,197,52)" stroke-width="1" opacity="0.9725490196078431" d="M 195.5 183 L 201 195.5 L 200 195.5 L 195 184.5 L 195.5 183 Z " /><path fill="rgb(182,197,52)" stroke="rgb(182,197,52)" stroke-width="1" opacity="0.9725490196078431" d="M 201.5 197 L 204 202.5 L 203 202.5 L 201.5 197 Z " /><path fill="rgb(182,197,52)" stroke="rgb(182,197,52)" stroke-width="1" opacity="0.9725490196078431" d="M 204.5 204 L 207 209.5 L 206 209.5 L 204.5 204 Z " /><path fill="rgb(182,197,52)" stroke="rgb(182,197,52)" stroke-width="1" opacity="0.9725490196078431" d="M 207.5 211 L 209 214.5 L 208 214.5 L 207.5 211 Z " /><path fill="rgb(182,197,52)" stroke="rgb(182,197,52)" stroke-width="1" opacity="0.9725490196078431" d="M 210.5 218 L 215 228.5 L 214 228.5 L 210.5 218 Z " /><path fill="rgb(182,197,52)" stroke="rgb(182,197,52)" stroke-width="1" opacity="0.9725490196078431" d="M 216.5 232 L 218 235.5 L 217 235.5 L 216.5 232 Z " /><path fill="rgb(182,197,52)" stroke="rgb(182,197,52)" stroke-width="1" opacity="0.9725490196078431" d="M 218.5 237 L 221 242.5 L 220 242.5 L 218.5 237 Z " /><path fill="rgb(182,197,52)" stroke="rgb(182,197,52)" stroke-width="1" opacity="0.9725490196078431" d="M 221.5 244 L 224 249.5 L 223 249.5 L 221.5 244 Z " /><path fill="rgb(182,197,52)" stroke="rgb(182,197,52)" stroke-width="1" opacity="0.9725490196078431" d="M 224.5 251 L 229 261.5 L 228 261.5 L 224.5 251 Z " /><path fill="rgb(182,197,52)" stroke="rgb(182,197,52)" stroke-width="1" opacity="0.9725490196078431" d="M 242.5 293 L 246 301.5 L 245 301.5 L 242.5 293 Z " /><path fill="rgb(182,197,52)" stroke="rgb(182,197,52)" stroke-width="1" opacity="0.9725490196078431" d="M 246.5 303 L 249 308.5 L 248 308.5 L 246.5 303 Z " /><path fill="rgb(73,93,101)" stroke="rgb(73,93,101)" stroke-width="1" opacity="0.8705882352941177" d="M 85.5 257 L 104.5 259 L 123 265 L 118.5 272 Q 104.2 261.3 82 258.5 L 85.5 257 Z " /><path fill="rgb(73,93,101)" stroke="rgb(73,93,101)" stroke-width="1" opacity="0.8705882352941177" d="M 424.5 257 L 444.5 259 L 462.5 265 Q 478.8 272.8 490 285.5 L 492 288.5 Q 504.6 301.4 510 321.5 L 512 331.5 L 512 356.5 Q 505.3 393.3 480.5 412 Q 467.6 422.6 449.5 428 L 433.5 431 L 418.5 431 L 418.5 430 L 432.5 428 L 452.5 420 Q 466.8 411.8 477 399.5 Q 487.4 387.4 493 370.5 L 496 358.5 L 497 338.5 L 493 317.5 L 489 307.5 Q 480.9 290.6 467.5 279 Q 457.1 269.9 443.5 264 L 431.5 260 L 421 258.5 L 424.5 257 Z " /><path fill="rgb(73,93,101)" stroke="rgb(73,93,101)" stroke-width="1" opacity="0.8705882352941177" d="M 137.5 274 L 153 288.5 Q 167.1 303.4 171 327 L 155.5 327 L 155 323.5 L 148 304.5 Q 141.9 292.1 132 283.5 L 132 281.5 L 137.5 274 Z " /><path fill="rgb(73,93,101)" stroke="rgb(73,93,101)" stroke-width="1" opacity="0.8705882352941177" d="M 21.5 286 L 20.5 288 L 21.5 286 Z " /><path fill="rgb(73,93,101)" stroke="rgb(73,93,101)" stroke-width="1" opacity="0.8705882352941177" d="M 387.5 305 L 386.5 307 L 387.5 305 Z " /><path fill="rgb(73,93,101)" stroke="rgb(73,93,101)" stroke-width="1" opacity="0.8705882352941177" d="M 155 361 L 170.5 361 L 171 364.5 L 163 385.5 Q 155.4 398.9 144.5 409 Q 131.8 420.8 113.5 427 L 101.5 430 L 78.5 431 L 78.5 430 L 88.5 429 L 104.5 424 Q 122 416.5 134 403.5 Q 143.6 393.1 150 379.5 L 155 365.5 L 155 361 Z " /><path fill="rgb(73,93,101)" stroke="rgb(73,93,101)" stroke-width="1" opacity="0.8705882352941177" d="M 121.5 385 L 120.5 387 L 121.5 385 Z " /><path fill="rgb(73,93,101)" stroke="rgb(73,93,101)" stroke-width="1" opacity="0.8705882352941177" d="M 19.5 399 L 20.5 401 L 19.5 399 Z " /><path fill="rgb(89,108,117)" stroke="rgb(89,108,117)" stroke-width="1" opacity="0.9882352941176471" d="M 425.5 81 Q 433.4 80.1 435 85.5 L 435 92.5 L 426 109.5 L 419.5 117 L 410.5 121 L 384.5 121 L 383.5 120 L 350.5 120 L 348.5 120 L 344 116.5 L 343 110.5 L 347.5 105 L 351.5 104 L 409.5 104 L 412 101.5 L 421.5 83 L 425.5 81 Z " /><path fill="rgb(89,108,117)" stroke="rgb(89,108,117)" stroke-width="1" opacity="0.9882352941176471" d="M 72.5 258 L 80.5 259 L 82.5 259 L 87.5 259 L 101.5 263 L 118.5 272 L 121 270.5 L 107 293 L 94.5 290 L 76.5 290 L 56.5 298 L 43 310.5 L 34 327.5 L 32 335.5 L 32 352.5 L 37 368.5 Q 43.5 380.1 53.5 388 Q 66 398.5 88.5 399 L 106.5 395 Q 119.8 389.8 128 379.5 L 138.5 361 L 154.5 361 Q 155.5 361 155 365.5 Q 147.7 391.2 130.5 407 Q 117.8 419.3 99.5 426 L 83.5 430 L 72.5 430 Q 39 423.5 21 401.5 L 19.5 399 Q 17.3 399.8 18 397.5 Q 7 385 2 366.5 L 0 356.5 L 0 331.5 L 2 321.5 L 9 303.5 Q 16.7 289.2 28.5 279 L 49.5 265 L 72.5 258 Z " /><path fill="rgb(89,108,117)" stroke="rgb(89,108,117)" stroke-width="1" opacity="0.9882352941176471" d="M 420.5 258 Q 456.8 264.2 476 287.5 Q 487 300 493 317.5 L 496 330.5 L 497 349.5 L 493 370.5 L 486 386.5 Q 477.8 400.8 465.5 411 Q 455.3 419.8 441.5 425 L 423.5 430 L 410.5 430 L 388.5 423 L 366 408 Q 367.1 405.3 364.5 406 Q 351.3 393.2 344 374.5 L 339 352.5 L 339 336.5 L 342 320.5 L 351 299.5 Q 359.1 286.6 370.5 277 L 387.5 266 Q 394 280 396 298.5 L 386 306.5 Q 377.6 315.6 373 328.5 L 371 347.5 L 374 362.5 L 380 374.5 L 390.5 386 L 405.5 395 L 415.5 398 L 428.5 399 L 443.5 396 L 452.5 392 L 470 376.5 Q 476.2 368.7 479 357.5 L 480 352.5 L 480 336.5 Q 475.4 313.1 459.5 301 L 445.5 293 L 434.5 290 L 429.5 290 L 428 288.5 L 420.5 258 Z " /><path fill="rgb(89,108,117)" stroke="rgb(89,108,117)" stroke-width="1" opacity="0.9882352941176471" d="M 131.5 282 L 148 304.5 L 154 319.5 L 155 327 L 138.5 327 L 137 325.5 L 134 317.5 L 128 308 L 125 306.5 Q 125.8 304.3 123.5 305 Q 119.5 304.5 120 299.5 L 131.5 282 Z " /><path fill="rgb(89,108,117)" stroke="rgb(89,108,117)" stroke-width="1" opacity="0.9882352941176471" d="M 224.5 391 L 270.5 391 L 275 395.5 Q 276.3 403.8 271.5 406 L 269.5 407 L 224.5 407 L 220 403.5 L 219 396.5 L 222.5 392 L 224.5 391 Z " /></svg>