<svg width="512" height="512" version="1.1" xmlns="http://www.w3.org/2000/svg" desc="Created with imagetracer.js version 1.2.6" ><path fill="rgb(77,195,33)" stroke="rgb(77,195,33)" stroke-width="1" opacity="0.984313725490196" d="M 249.5 17 L 251.5 17 L 261.5 17 L 262.5 18 L 264.5 17 L 265.5 18 L 279.5 18 L 280.5 19 L 292.5 20 L 314.5 27 Q 339.3 37.3 357 54.5 Q 356.3 56.8 358.5 56 Q 390.4 86.1 409 129.5 L 406 127.5 Q 395.1 111.9 380.5 100 Q 359.5 81 330.5 70 L 302.5 63 L 267.5 62 L 266.5 63 L 255.5 63 L 254.5 64 L 247.5 64 L 231.5 67 L 206.5 75 Q 179.9 85.9 162.5 106 L 138 118 L 137 112.5 L 137 94.5 Q 144.3 61.3 167.5 44 Q 184 31 206.5 24 L 229.5 19 L 248.5 18 L 249.5 17 Z " /><path fill="rgb(77,195,33)" stroke="rgb(77,195,33)" stroke-width="1" opacity="0.984313725490196" d="M 70.5 196 Q 78.1 194.9 80 199.5 L 83 220.5 L 86 228.5 Q 64.1 256.1 51 292.5 L 44 319.5 L 43 335.5 L 42 336.5 L 42 353.5 L 47 381.5 L 56 404.5 Q 72.7 438.3 99.5 462 Q 116.6 476.9 141 484.5 L 130.5 487 L 109.5 487 L 95.5 484 L 78.5 477 L 57 463 Q 58.1 460.3 55.5 461 Q 27.6 435.9 11 399.5 L 4 380.5 L 1 367.5 Q 2.5 362 0 360.5 L 0 329.5 L 6 299.5 Q 9.5 295 10 287.5 L 12 285.5 L 12 282.5 L 24 257.5 Q 42.8 223.8 68.5 197 L 70.5 196 Z " /><path fill="rgb(77,195,33)" stroke="rgb(77,195,33)" stroke-width="1" opacity="0.984313725490196" d="M 412.5 261 L 414.5 261 L 430.5 262 L 433 264.5 Q 434.8 272.3 430.5 274 Q 418.7 279.7 411 289.5 L 394 314.5 L 381 344.5 L 372 378.5 L 364 422.5 L 357 444.5 Q 346.8 468.8 327.5 484 L 318 491.5 L 317.5 493 L 310.5 493 L 309.5 492 L 301.5 492 L 283.5 488 L 278.5 488 L 271 482.5 L 271 477.5 L 276.5 471 L 281 469 Q 279.9 466.3 282.5 467 L 297 453.5 Q 310.7 437.7 317 414.5 L 325 379.5 L 326 369.5 L 338 329.5 L 353 300.5 L 371.5 279 L 389.5 267 L 400.5 263 L 411.5 262 L 412.5 261 Z " /><path fill="rgb(0,0,0)" stroke="rgb(0,0,0)" stroke-width="1" opacity="0" d="M 0 0 L 512 0 L 512 328.5 L 511 328.5 L 510 318.5 L 506 306.5 Q 499.1 289.4 486.5 278 Q 476.8 268.5 462 265 L 459 222.5 L 457 211.5 L 454.5 208 L 447.5 206 L 446.5 207 L 429.5 209 L 424 213.5 L 424 221.5 L 430 244.5 L 432 262.5 L 430.5 262 L 411.5 261 L 400.5 263 L 383.5 270 Q 370.4 277.9 361 289.5 Q 345.5 309 336 334.5 L 326 369.5 L 318 410.5 L 312 428.5 Q 303.9 447.9 289.5 461 L 272 474.5 L 271 482.5 L 273 486 L 278.5 488 L 301.5 492 L 307.5 492 L 308.5 493 L 333.5 494 L 334.5 495 L 352.5 495 L 353.5 494 L 376.5 493 L 397.5 489 L 428.5 478 Q 455.7 464.7 474 442.5 Q 488.6 424.1 499 401.5 L 507 380.5 L 511.5 358 L 512 512 L 0.5 512 L 0 511.5 L 0 361.5 L 1 361.5 L 1 367.5 L 4 380.5 Q 9.3 398.7 18 413.5 Q 33.6 442.4 57.5 463 Q 73.3 476.7 95.5 484 L 109.5 487 L 131.5 487 Q 154.6 483.1 168.5 470 L 202.5 487 L 215.5 492 L 218.5 492 L 225 487.5 L 232 469.5 L 232 465.5 L 230 461 L 206.5 454 L 184 444.5 Q 201.4 428.9 202 396.5 L 198 374.5 L 190 355.5 Q 174 326.5 150.5 305 L 107 265.5 Q 95.3 253.2 88 236.5 L 84 224.5 L 81 201.5 L 77.5 197 L 69.5 196 Q 44.3 221.3 26 253.5 L 10 287.5 L 2 315.5 L 0.5 328 L 0 0 Z M 250 17 L 249 18 L 229 19 L 210 23 Q 185 30 168 44 Q 144 61 137 95 L 137 115 L 138 119 Q 117 130 100 145 Q 94 147 93 154 L 94 159 L 104 172 L 110 176 L 118 175 Q 133 158 152 145 Q 156 160 165 170 Q 176 181 192 188 L 216 194 L 250 194 L 251 193 L 258 193 L 274 190 L 293 185 L 330 172 L 356 166 L 381 166 L 403 172 L 413 177 L 420 177 L 424 172 L 424 167 L 418 150 L 399 109 Q 387 87 371 69 Q 348 41 313 26 L 293 20 L 282 19 L 281 18 L 250 17 Z " /><path fill="rgb(107,203,68)" stroke="rgb(107,203,68)" stroke-width="1" opacity="0.9882352941176471" d="M 368.5 66 L 370.5 69 L 368.5 66 Z " /><path fill="rgb(107,203,68)" stroke="rgb(107,203,68)" stroke-width="1" opacity="0.9882352941176471" d="M 408.5 130 Q 411.1 129.2 410 132.5 Q 419.8 149.2 424 171.5 L 419.5 177 L 412.5 177 L 402.5 172 L 380.5 166 L 355.5 166 L 329.5 172 L 292.5 185 L 273.5 190 L 257.5 193 L 250.5 193 L 249.5 194 L 215.5 194 L 191.5 188 Q 175.7 181.3 165 169.5 Q 155.5 160 152 144.5 L 153 144.5 Q 158.6 164.9 173.5 176 L 185.5 184 L 197.5 189 L 209.5 192 Q 215 190.5 216.5 193 L 249.5 193 L 277.5 188 L 332.5 170 L 348.5 166 Q 354 167.5 355.5 165 L 380.5 165 L 400.5 170 L 412.5 176 L 418.5 176 L 423 171.5 L 423 167.5 L 408.5 130 Z " /><path fill="rgb(107,203,68)" stroke="rgb(107,203,68)" stroke-width="1" opacity="0.9882352941176471" d="M 85.5 229 L 96 251.5 Q 106.3 266.3 119.5 278 L 159 313.5 Q 179.3 334.2 193 361.5 L 200 382.5 L 202 402.5 L 201 403.5 L 201 411.5 L 196 427.5 Q 191.4 437.9 183.5 445 L 185 442.5 Q 200.1 426.6 201 396.5 L 200 395.5 L 200 387.5 L 198 378.5 L 187 352.5 Q 169.8 323.8 145.5 302 L 110 270.5 Q 98.9 259.6 91 245.5 L 86 234.5 L 85.5 229 Z " /><path fill="rgb(107,203,68)" stroke="rgb(107,203,68)" stroke-width="1" opacity="0.9882352941176471" d="M 41.5 230 L 40.5 232 L 41.5 230 Z " /><path fill="rgb(107,203,68)" stroke="rgb(107,203,68)" stroke-width="1" opacity="0.9882352941176471" d="M 461.5 265 Q 479.8 269.2 490 281.5 Q 504 296 510 318.5 L 512 329.5 L 512 357.5 Q 499 423.5 456.5 460 Q 439.3 474.3 416.5 483 L 388.5 491 L 383.5 491 L 376.5 493 L 368.5 493 L 367.5 494 L 354.5 494 L 354.5 493 L 367.5 493 L 368.5 492 L 382.5 491 L 413.5 483 Q 445.7 471.2 467 448.5 Q 489.8 423.3 503 388.5 L 507 376.5 L 511 356.5 L 511 329.5 L 508 315.5 L 501 298.5 Q 494.4 286.6 484.5 278 L 471.5 269 L 461.5 266 L 461.5 265 Z " /><path fill="rgb(107,203,68)" stroke="rgb(107,203,68)" stroke-width="1" opacity="0.9882352941176471" d="M 373.5 277 L 372.5 279 L 373.5 277 Z " /><path fill="rgb(107,203,68)" stroke="rgb(107,203,68)" stroke-width="1" opacity="0.9882352941176471" d="M 362.5 288 L 361.5 290 L 362.5 288 Z " /><path fill="rgb(107,203,68)" stroke="rgb(107,203,68)" stroke-width="1" opacity="0.9882352941176471" d="M 296.5 453 L 294.5 456 L 296.5 453 Z " /><path fill="rgb(107,203,68)" stroke="rgb(107,203,68)" stroke-width="1" opacity="0.9882352941176471" d="M 288.5 461 L 287.5 463 L 288.5 461 Z " /><path fill="rgb(107,203,68)" stroke="rgb(107,203,68)" stroke-width="1" opacity="0.9882352941176471" d="M 166.5 469 L 168 469.5 Q 158.3 480.3 141.5 484 L 141.5 483 Q 157.4 479.4 166.5 469 Z " /><path fill="rgb(107,203,68)" stroke="rgb(107,203,68)" stroke-width="1" opacity="0.9882352941176471" d="M 274.5 472 L 272.5 475 L 274.5 472 Z " /><path fill="rgb(107,203,68)" stroke="rgb(107,203,68)" stroke-width="1" opacity="0.9882352941176471" d="M 318.5 493 L 333 493.5 L 318.5 494 L 318.5 493 Z " /><path fill="rgb(107,203,68)" stroke="rgb(107,203,68)" stroke-width="1" opacity="0.9882352941176471" d="M 334.5 494 L 353 494.5 L 334.5 495 L 334.5 494 Z " /><path fill="rgb(107,203,68)" stroke="rgb(107,203,68)" stroke-width="1" opacity="1" d="M 267.5 62 L 302.5 63 L 324.5 68 L 340.5 74 Q 375.9 91.1 400 119.5 L 411 135.5 L 419 155.5 L 423 167.5 L 423 171.5 Q 421.5 177.5 412.5 176 Q 401.5 169 386.5 166 Q 381.8 167.3 380.5 165 L 355.5 165 L 332.5 170 Q 302.6 182.1 268.5 190 L 250.5 192 L 249.5 193 L 216.5 193 L 197.5 189 L 185.5 184 Q 173.4 177.6 165 167.5 Q 156.3 158.2 153 143.5 Q 177 124.5 208.5 113 L 237.5 106 L 260.5 105 L 277.5 108 L 286 108 L 287 104.5 L 283.5 100 L 268.5 93 L 253.5 89 Q 248 90.5 246.5 88 L 220.5 88 L 195.5 93 L 177.5 99 L 163.5 106 L 173.5 95 Q 189.8 81.3 211.5 73 L 241.5 65 L 254.5 64 L 255.5 63 L 266.5 63 L 267.5 62 Z " /><path fill="rgb(107,203,68)" stroke="rgb(107,203,68)" stroke-width="1" opacity="1" d="M 160.5 106 L 162 106.5 L 155.5 110 L 156.5 108 L 160.5 106 Z " /><path fill="rgb(107,203,68)" stroke="rgb(107,203,68)" stroke-width="1" opacity="1" d="M 147.5 113 L 146.5 115 L 144.5 116 L 145.5 114 L 147.5 113 Z " /><path fill="rgb(107,203,68)" stroke="rgb(107,203,68)" stroke-width="1" opacity="1" d="M 140.5 117 L 139.5 119 L 140.5 117 Z " /><path fill="rgb(107,203,68)" stroke="rgb(107,203,68)" stroke-width="1" opacity="1" d="M 84.5 230 Q 93.7 256.3 112.5 273 L 162 318.5 Q 180.5 338.5 193 364.5 L 199 382.5 L 201 402.5 L 200 403.5 L 199 415.5 L 196 424.5 Q 190.9 436.4 182.5 445 Q 140.2 427.3 112 395.5 L 95 370.5 L 88 351.5 L 85.5 348 L 83.5 347 L 80 349.5 L 79 352.5 L 80 353.5 L 80 366.5 L 83 379.5 L 93 402.5 Q 104.8 422.2 121.5 437 Q 141.7 455.3 167 468.5 Q 157 480 139.5 484 Q 104 472 83 445.5 Q 62.7 421.8 50 390.5 L 43 362.5 L 42 336.5 L 43 335.5 L 43 326.5 L 44 325.5 L 45 314.5 L 54 284.5 Q 66.2 254.2 84.5 230 Z " /><path fill="rgb(107,203,68)" stroke="rgb(107,203,68)" stroke-width="1" opacity="1" d="M 433.5 266 L 434 280.5 L 435 281.5 L 435 300.5 L 434 301.5 L 434 313.5 L 433 314.5 L 432 326.5 L 426 349.5 L 416 371.5 Q 409.3 384.3 399 393.5 L 398 398.5 Q 399 401 403.5 400 Q 420.8 391.3 432 376.5 L 448 349.5 L 456 325.5 L 460 303.5 L 460 295.5 L 461 294.5 L 461 274.5 Q 463.2 273.3 462 268.5 L 461 266 Q 480.8 270.8 492 285.5 Q 502.7 297.8 508 315.5 L 511 329.5 L 511 356.5 Q 499 417 462.5 453 Q 440.5 474.5 407.5 485 L 376.5 492 L 354.5 493 L 353.5 494 L 333.5 494 L 332.5 493 L 318 493 L 321.5 488 Q 334.3 480.3 343 468.5 Q 354.6 453.6 361 433.5 L 366 413.5 L 374 369.5 L 386 331.5 Q 397.6 302.1 418.5 282 L 433 271.5 L 433.5 266 Z " /><path fill="rgb(169,226,146)" stroke="rgb(169,226,146)" stroke-width="1" opacity="0.9803921568627451" d="M 220.5 88 L 246.5 88 Q 248 90.5 253.5 89 L 273.5 95 L 286 102.5 L 287 104.5 L 286 108 L 277.5 108 L 260.5 105 L 248.5 105 L 247.5 106 L 231.5 107 L 214.5 111 L 179.5 126 L 155.5 141 L 131.5 161 L 117.5 175 L 109.5 176 L 104 171.5 L 94 158.5 L 93 153.5 Q 94.4 147.4 99.5 145 L 131.5 122 L 136.5 119 L 139.5 119 L 170.5 102 L 195.5 93 L 220.5 88 Z " /><path fill="rgb(169,226,146)" stroke="rgb(169,226,146)" stroke-width="1" opacity="0.9803921568627451" d="M 447.5 206 Q 453.3 206.3 456 209.5 L 458 215.5 L 459 230.5 L 460 231.5 L 462 264.5 L 461 267.5 Q 463.2 268.8 462 273.5 L 461 274.5 L 461 294.5 L 460 295.5 L 458 316.5 L 450 344.5 Q 438.8 373.8 416.5 392 L 403.5 400 L 399.5 400 Q 397.3 399.3 398 395.5 Q 417.3 375.8 427 346.5 L 434 313.5 L 435 281.5 L 434 280.5 L 434 266.5 L 432 262.5 L 430 244.5 L 424 221.5 L 424 213.5 L 429.5 209 L 440.5 208 L 447.5 206 Z " /><path fill="rgb(169,226,146)" stroke="rgb(169,226,146)" stroke-width="1" opacity="0.9803921568627451" d="M 83.5 347 L 87 349.5 L 93 366.5 L 102 382.5 Q 113.4 399.1 128.5 412 Q 149.3 429.8 175.5 442 L 206.5 454 L 230 461 Q 232.6 463.3 232 469.5 L 225 487.5 L 221.5 491 L 215.5 492 L 193.5 483 L 169.5 471 Q 163.1 464.4 153.5 461 Q 128.5 445.5 109 424.5 Q 95.6 409.9 87 390.5 L 81 371.5 L 80 353.5 L 79 351.5 L 81.5 348 L 83.5 347 Z " /></svg>