<svg width="512" height="512" version="1.1" xmlns="http://www.w3.org/2000/svg" desc="Created with imagetracer.js version 1.2.6" ><path fill="rgb(123,222,99)" stroke="rgb(123,222,99)" stroke-width="1" opacity="0.9686274509803922" d="M 139 17 Q 170.4 22.9 195.5 36 Q 222.6 50.4 242 72.5 L 256 91.5 L 256 94.5 L 259 99.5 Q 255.2 109.2 247.5 115 Q 241.8 120.3 232.5 122 L 217.5 122 Q 187.5 114 171 92.5 Q 160.2 79.3 153 62.5 L 143 34.5 L 139 17 Z " /><path fill="rgb(123,222,99)" stroke="rgb(123,222,99)" stroke-width="1" opacity="0.9686274509803922" d="M 370.5 64 Q 373.9 63.1 372 68.5 Q 366.3 94.3 356 115.5 Q 346.2 135.7 330.5 150 Q 320.4 159.4 306.5 165 L 293.5 169 L 280.5 169 Q 267.2 166.8 260 158.5 L 253 145.5 L 265 125.5 L 285.5 104 Q 303.4 88.4 326.5 78 L 350.5 69 L 370.5 64 Z " /><path fill="rgb(0,0,0)" stroke="rgb(0,0,0)" stroke-width="1" opacity="0" d="M 0 0 L 512 0 L 512 512 L 0 512 L 0 0 Z M 139 17 L 143 35 L 153 63 Q 160 79 171 93 Q 188 114 218 122 L 233 122 L 244 118 L 244 225 L 246 229 L 252 231 L 256 230 L 260 224 L 261 159 Q 267 167 281 169 L 294 169 L 307 165 Q 320 159 331 150 Q 346 136 356 116 L 367 88 L 372 64 Q 320 74 287 103 Q 271 115 261 132 L 260 99 L 242 73 Q 205 30 139 17 Z M 405 192 L 362 219 L 355 228 L 356 237 L 361 244 L 361 246 L 345 250 L 330 250 L 325 249 L 298 238 L 286 238 L 275 241 Q 260 246 249 255 L 246 252 Q 242 245 233 243 L 216 244 L 182 252 Q 163 254 153 248 L 157 240 Q 158 233 155 230 L 118 204 L 106 198 Q 99 197 97 200 L 89 209 L 9 335 Q 7 343 10 347 L 24 357 L 58 378 Q 65 380 69 377 Q 76 371 81 361 Q 92 387 111 406 Q 147 443 194 470 L 230 487 L 250 493 L 261 494 L 262 495 L 280 494 L 293 488 Q 301 482 303 471 L 315 474 Q 327 476 334 471 Q 344 464 346 449 Q 347 446 349 448 Q 363 450 371 445 Q 376 441 379 434 L 381 422 L 385 423 L 400 423 L 413 418 Q 421 412 423 401 L 422 387 Q 418 377 410 372 L 424 361 L 431 353 L 438 366 L 447 372 L 457 371 L 498 345 L 503 339 Q 505 329 501 325 L 419 197 Q 416 190 405 192 Z " /><path fill="rgb(254,235,135)" stroke="rgb(254,235,135)" stroke-width="1" opacity="0.9803921568627451" d="M 101.5 198 L 105.5 198 L 112.5 201 L 155 229.5 Q 157.7 232.8 157 239.5 L 153 248 Q 150.3 246.9 151 249.5 L 82 356.5 L 78 365.5 L 68.5 377 Q 65 379.5 57.5 378 L 23.5 357 L 10 346.5 Q 7.3 342.7 9 334.5 L 89 208.5 L 96.5 200 L 101.5 198 Z " /><path fill="rgb(254,235,135)" stroke="rgb(254,235,135)" stroke-width="1" opacity="0.9803921568627451" d="M 120.5 414 L 122.5 417 L 120.5 414 Z " /><path fill="rgb(240,203,188)" stroke="rgb(240,203,188)" stroke-width="1" opacity="0.984313725490196" d="M 251.5 111 L 250.5 113 L 251.5 111 Z " /><path fill="rgb(240,203,188)" stroke="rgb(240,203,188)" stroke-width="1" opacity="0.984313725490196" d="M 246.5 115 L 245.5 117 L 246.5 115 Z " /><path fill="rgb(240,203,188)" stroke="rgb(240,203,188)" stroke-width="1" opacity="0.984313725490196" d="M 286.5 238 L 301.5 239 L 323.5 249 L 328.5 250 L 345.5 250 L 361.5 245 L 426 344.5 L 430 353.5 Q 421.7 364.7 408.5 371 L 328.5 316 L 300.5 302 L 292.5 300 L 286.5 300 L 283.5 301 L 261.5 319 L 237.5 334 L 223.5 340 L 214.5 342 L 207.5 342 Q 201 340.5 198 335.5 Q 195.8 330.8 197 322.5 Q 200.4 307.9 208 297.5 L 229.5 272 L 248 256.5 L 250.5 253 L 274.5 241 L 286.5 238 Z " /><path fill="rgb(240,203,188)" stroke="rgb(240,203,188)" stroke-width="1" opacity="0.984313725490196" d="M 300.5 361 L 307.5 363 L 395 421.5 Q 394.3 423.8 390.5 423 L 380 421 Q 381.5 426.4 378.5 428 L 296 372.5 L 295 365.5 L 300.5 361 Z " /><path fill="rgb(240,203,188)" stroke="rgb(240,203,188)" stroke-width="1" opacity="0.984313725490196" d="M 287.5 401 L 307.5 413 L 357 447.5 L 353.5 448 L 352.5 447 L 346 447 L 344 455 Q 311.1 435.2 281 411.5 Q 279.5 403.5 284.5 402 L 287.5 401 Z " /><path fill="rgb(240,203,188)" stroke="rgb(240,203,188)" stroke-width="1" opacity="0.984313725490196" d="M 266.5 438 L 273.5 439 L 316 472.5 L 312.5 473 L 303 470 L 299.5 478 L 262 447.5 L 262 442.5 L 266.5 438 Z " /><path fill="rgb(223,213,210)" stroke="rgb(223,213,210)" stroke-width="1" opacity="0.8313725490196079" d="M 256.5 93 L 260 98.5 L 260 134.5 L 259 134.5 L 259 98.5 L 256 94.5 L 256.5 93 Z " /><path fill="rgb(223,213,210)" stroke="rgb(223,213,210)" stroke-width="1" opacity="0.8313725490196079" d="M 292.5 98 L 291.5 100 L 292.5 98 Z " /><path fill="rgb(223,213,210)" stroke="rgb(223,213,210)" stroke-width="1" opacity="0.8313725490196079" d="M 244.5 117 L 245 224.5 L 248.5 229 L 252.5 230 L 257 228 L 259 223.5 L 259.5 157 L 260 223.5 L 255.5 230 L 251.5 231 L 246 229 L 244 224.5 L 244.5 117 Z " /><path fill="rgb(223,213,210)" stroke="rgb(223,213,210)" stroke-width="1" opacity="0.8313725490196079" d="M 221.5 243 Q 239 241 245 250.5 L 248 256.5 L 246 257.5 L 247 255.5 L 241.5 248 L 236.5 245 L 221.5 244 L 221.5 243 Z " /><path fill="rgb(223,213,210)" stroke="rgb(223,213,210)" stroke-width="1" opacity="0.8313725490196079" d="M 215.5 244 L 220 244.5 L 215.5 245 L 215.5 244 Z " /><path fill="rgb(223,213,210)" stroke="rgb(223,213,210)" stroke-width="1" opacity="0.8313725490196079" d="M 210.5 245 L 214 245.5 L 202.5 248 L 202.5 247 L 210.5 245 Z " /><path fill="rgb(223,213,210)" stroke="rgb(223,213,210)" stroke-width="1" opacity="0.8313725490196079" d="M 362.5 245 L 363.5 247 L 362.5 245 Z " /><path fill="rgb(223,213,210)" stroke="rgb(223,213,210)" stroke-width="1" opacity="0.8313725490196079" d="M 151.5 248 L 164 251.5 L 160.5 252 L 151.5 249 L 151.5 248 Z " /><path fill="rgb(223,213,210)" stroke="rgb(223,213,210)" stroke-width="1" opacity="0.8313725490196079" d="M 198.5 248 L 201 248.5 L 198.5 249 L 198.5 248 Z " /><path fill="rgb(223,213,210)" stroke="rgb(223,213,210)" stroke-width="1" opacity="0.8313725490196079" d="M 194.5 249 L 197 249.5 L 194.5 250 L 194.5 249 Z " /><path fill="rgb(223,213,210)" stroke="rgb(223,213,210)" stroke-width="1" opacity="0.8313725490196079" d="M 189.5 250 L 193 250.5 L 189.5 251 L 189.5 250 Z " /><path fill="rgb(223,213,210)" stroke="rgb(223,213,210)" stroke-width="1" opacity="0.8313725490196079" d="M 182.5 251 L 188 251.5 L 182.5 252 L 182.5 251 Z " /><path fill="rgb(223,213,210)" stroke="rgb(223,213,210)" stroke-width="1" opacity="0.8313725490196079" d="M 165.5 252 L 181 252.5 L 165.5 253 L 165.5 252 Z " /><path fill="rgb(223,213,210)" stroke="rgb(223,213,210)" stroke-width="1" opacity="0.8313725490196079" d="M 148.5 253 L 147.5 255 L 148.5 253 Z " /><path fill="rgb(223,213,210)" stroke="rgb(223,213,210)" stroke-width="1" opacity="0.8313725490196079" d="M 367.5 253 L 368.5 255 L 367.5 253 Z " /><path fill="rgb(223,213,210)" stroke="rgb(223,213,210)" stroke-width="1" opacity="0.8313725490196079" d="M 369.5 256 L 370.5 258 L 369.5 256 Z " /><path fill="rgb(223,213,210)" stroke="rgb(223,213,210)" stroke-width="1" opacity="0.8313725490196079" d="M 243.5 259 L 240.5 263 L 243.5 259 Z " /><path fill="rgb(223,213,210)" stroke="rgb(223,213,210)" stroke-width="1" opacity="0.8313725490196079" d="M 141.5 264 L 140.5 266 L 141.5 264 Z " /><path fill="rgb(223,213,210)" stroke="rgb(223,213,210)" stroke-width="1" opacity="0.8313725490196079" d="M 237.5 264 L 230.5 272 L 237.5 264 Z " /><path fill="rgb(223,213,210)" stroke="rgb(223,213,210)" stroke-width="1" opacity="0.8313725490196079" d="M 374.5 264 L 375.5 266 L 374.5 264 Z " /><path fill="rgb(223,213,210)" stroke="rgb(223,213,210)" stroke-width="1" opacity="0.8313725490196079" d="M 376.5 267 L 377.5 269 L 376.5 267 Z " /><path fill="rgb(223,213,210)" stroke="rgb(223,213,210)" stroke-width="1" opacity="0.8313725490196079" d="M 134.5 275 L 133.5 277 L 134.5 275 Z " /><path fill="rgb(223,213,210)" stroke="rgb(223,213,210)" stroke-width="1" opacity="0.8313725490196079" d="M 225.5 276 L 218.5 284 L 225.5 276 Z " /><path fill="rgb(223,213,210)" stroke="rgb(223,213,210)" stroke-width="1" opacity="0.8313725490196079" d="M 132.5 278 L 131.5 280 L 132.5 278 Z " /><path fill="rgb(223,213,210)" stroke="rgb(223,213,210)" stroke-width="1" opacity="0.8313725490196079" d="M 383.5 278 L 384.5 280 L 383.5 278 Z " /><path fill="rgb(223,213,210)" stroke="rgb(223,213,210)" stroke-width="1" opacity="0.8313725490196079" d="M 385.5 281 L 386.5 283 L 385.5 281 Z " /><path fill="rgb(223,213,210)" stroke="rgb(223,213,210)" stroke-width="1" opacity="0.8313725490196079" d="M 127.5 286 L 126.5 288 L 127.5 286 Z " /><path fill="rgb(223,213,210)" stroke="rgb(223,213,210)" stroke-width="1" opacity="0.8313725490196079" d="M 216.5 286 L 214.5 289 L 216.5 286 Z " /><path fill="rgb(223,213,210)" stroke="rgb(223,213,210)" stroke-width="1" opacity="0.8313725490196079" d="M 390.5 289 L 391.5 291 L 390.5 289 Z " /><path fill="rgb(223,213,210)" stroke="rgb(223,213,210)" stroke-width="1" opacity="0.8313725490196079" d="M 212.5 291 L 211.5 293 L 212.5 291 Z " /><path fill="rgb(223,213,210)" stroke="rgb(223,213,210)" stroke-width="1" opacity="0.8313725490196079" d="M 392.5 292 L 393.5 294 L 392.5 292 Z " /><path fill="rgb(223,213,210)" stroke="rgb(223,213,210)" stroke-width="1" opacity="0.8313725490196079" d="M 209.5 295 L 208.5 297 L 209.5 295 Z " /><path fill="rgb(223,213,210)" stroke="rgb(223,213,210)" stroke-width="1" opacity="0.8313725490196079" d="M 120.5 297 L 119.5 299 L 120.5 297 Z " /><path fill="rgb(223,213,210)" stroke="rgb(223,213,210)" stroke-width="1" opacity="0.8313725490196079" d="M 118.5 300 L 117.5 302 L 118.5 300 Z " /><path fill="rgb(223,213,210)" stroke="rgb(223,213,210)" stroke-width="1" opacity="0.8313725490196079" d="M 206.5 300 L 205.5 302 L 206.5 300 Z " /><path fill="rgb(223,213,210)" stroke="rgb(223,213,210)" stroke-width="1" opacity="0.8313725490196079" d="M 286.5 300 L 293 300.5 L 286.5 301 L 286.5 300 Z " /><path fill="rgb(223,213,210)" stroke="rgb(223,213,210)" stroke-width="1" opacity="0.8313725490196079" d="M 397.5 300 L 398.5 302 L 397.5 300 Z " /><path fill="rgb(223,213,210)" stroke="rgb(223,213,210)" stroke-width="1" opacity="0.8313725490196079" d="M 283.5 301 L 285 301.5 L 281.5 304 L 283.5 301 Z " /><path fill="rgb(223,213,210)" stroke="rgb(223,213,210)" stroke-width="1" opacity="0.8313725490196079" d="M 399.5 303 L 400.5 305 L 399.5 303 Z " /><path fill="rgb(223,213,210)" stroke="rgb(223,213,210)" stroke-width="1" opacity="0.8313725490196079" d="M 278.5 305 L 275.5 309 L 278.5 305 Z " /><path fill="rgb(223,213,210)" stroke="rgb(223,213,210)" stroke-width="1" opacity="0.8313725490196079" d="M 273.5 309 L 271.5 312 L 273.5 309 Z " /><path fill="rgb(223,213,210)" stroke="rgb(223,213,210)" stroke-width="1" opacity="0.8313725490196079" d="M 111.5 311 L 110.5 313 L 111.5 311 Z " /><path fill="rgb(223,213,210)" stroke="rgb(223,213,210)" stroke-width="1" opacity="0.8313725490196079" d="M 404.5 311 L 405.5 313 L 404.5 311 Z " /><path fill="rgb(223,213,210)" stroke="rgb(223,213,210)" stroke-width="1" opacity="0.8313725490196079" d="M 321.5 312 L 322.5 314 L 321.5 312 Z " /><path fill="rgb(223,213,210)" stroke="rgb(223,213,210)" stroke-width="1" opacity="0.8313725490196079" d="M 268.5 313 L 266.5 316 L 268.5 313 Z " /><path fill="rgb(223,213,210)" stroke="rgb(223,213,210)" stroke-width="1" opacity="0.8313725490196079" d="M 406.5 314 L 407.5 316 L 406.5 314 Z " /><path fill="rgb(223,213,210)" stroke="rgb(223,213,210)" stroke-width="1" opacity="0.8313725490196079" d="M 326.5 315 L 330 317.5 L 328.5 317 L 326.5 315 Z " /><path fill="rgb(223,213,210)" stroke="rgb(223,213,210)" stroke-width="1" opacity="0.8313725490196079" d="M 264.5 316 L 263.5 318 L 264.5 316 Z " /><path fill="rgb(223,213,210)" stroke="rgb(223,213,210)" stroke-width="1" opacity="0.8313725490196079" d="M 331.5 318 L 332.5 320 L 331.5 318 Z " /><path fill="rgb(223,213,210)" stroke="rgb(223,213,210)" stroke-width="1" opacity="0.8313725490196079" d="M 197.5 319 L 198 321.5 L 197 321.5 L 197.5 319 Z " /><path fill="rgb(223,213,210)" stroke="rgb(223,213,210)" stroke-width="1" opacity="0.8313725490196079" d="M 260.5 319 L 259.5 321 L 260.5 319 Z " /><path fill="rgb(223,213,210)" stroke="rgb(223,213,210)" stroke-width="1" opacity="0.8313725490196079" d="M 257.5 321 L 256.5 323 L 257.5 321 Z " /><path fill="rgb(223,213,210)" stroke="rgb(223,213,210)" stroke-width="1" opacity="0.8313725490196079" d="M 336.5 321 L 337.5 323 L 336.5 321 Z " /><path fill="rgb(223,213,210)" stroke="rgb(223,213,210)" stroke-width="1" opacity="0.8313725490196079" d="M 104.5 322 L 103.5 324 L 104.5 322 Z " /><path fill="rgb(223,213,210)" stroke="rgb(223,213,210)" stroke-width="1" opacity="0.8313725490196079" d="M 411.5 322 L 412.5 324 L 411.5 322 Z " /><path fill="rgb(223,213,210)" stroke="rgb(223,213,210)" stroke-width="1" opacity="0.8313725490196079" d="M 254.5 323 L 253.5 325 L 254.5 323 Z " /><path fill="rgb(223,213,210)" stroke="rgb(223,213,210)" stroke-width="1" opacity="0.8313725490196079" d="M 339.5 323 L 340.5 325 L 339.5 323 Z " /><path fill="rgb(223,213,210)" stroke="rgb(223,213,210)" stroke-width="1" opacity="0.8313725490196079" d="M 196.5 324 L 197 330.5 L 196 330.5 L 196.5 324 Z " /><path fill="rgb(223,213,210)" stroke="rgb(223,213,210)" stroke-width="1" opacity="0.8313725490196079" d="M 251.5 325 L 250.5 327 L 251.5 325 Z " /><path fill="rgb(223,213,210)" stroke="rgb(223,213,210)" stroke-width="1" opacity="0.8313725490196079" d="M 342.5 325 L 343.5 327 L 342.5 325 Z " /><path fill="rgb(223,213,210)" stroke="rgb(223,213,210)" stroke-width="1" opacity="0.8313725490196079" d="M 413.5 325 L 414.5 327 L 413.5 325 Z " /><path fill="rgb(223,213,210)" stroke="rgb(223,213,210)" stroke-width="1" opacity="0.8313725490196079" d="M 248.5 327 L 247.5 329 L 248.5 327 Z " /><path fill="rgb(223,213,210)" stroke="rgb(223,213,210)" stroke-width="1" opacity="0.8313725490196079" d="M 345.5 327 L 346.5 329 L 345.5 327 Z " /><path fill="rgb(223,213,210)" stroke="rgb(223,213,210)" stroke-width="1" opacity="0.8313725490196079" d="M 348.5 329 L 349.5 331 L 348.5 329 Z " /><path fill="rgb(223,213,210)" stroke="rgb(223,213,210)" stroke-width="1" opacity="0.8313725490196079" d="M 241.5 331 L 240.5 333 L 238.5 334 L 239.5 332 L 241.5 331 Z " /><path fill="rgb(223,213,210)" stroke="rgb(223,213,210)" stroke-width="1" opacity="0.8313725490196079" d="M 351.5 331 L 352.5 333 L 351.5 331 Z " /><path fill="rgb(223,213,210)" stroke="rgb(223,213,210)" stroke-width="1" opacity="0.8313725490196079" d="M 97.5 333 L 96.5 335 L 97.5 333 Z " /><path fill="rgb(223,213,210)" stroke="rgb(223,213,210)" stroke-width="1" opacity="0.8313725490196079" d="M 354.5 333 L 355.5 335 L 354.5 333 Z " /><path fill="rgb(223,213,210)" stroke="rgb(223,213,210)" stroke-width="1" opacity="0.8313725490196079" d="M 357.5 335 L 358.5 337 L 357.5 335 Z " /><path fill="rgb(223,213,210)" stroke="rgb(223,213,210)" stroke-width="1" opacity="0.8313725490196079" d="M 198.5 336 L 201.5 340 L 198.5 336 Z " /><path fill="rgb(223,213,210)" stroke="rgb(223,213,210)" stroke-width="1" opacity="0.8313725490196079" d="M 420.5 336 L 421.5 338 L 420.5 336 Z " /><path fill="rgb(223,213,210)" stroke="rgb(223,213,210)" stroke-width="1" opacity="0.8313725490196079" d="M 360.5 337 L 362.5 340 L 360.5 337 Z " /><path fill="rgb(223,213,210)" stroke="rgb(223,213,210)" stroke-width="1" opacity="0.8313725490196079" d="M 422.5 339 L 423.5 341 L 422.5 339 Z " /><path fill="rgb(223,213,210)" stroke="rgb(223,213,210)" stroke-width="1" opacity="0.8313725490196079" d="M 364.5 340 L 365.5 342 L 364.5 340 Z " /><path fill="rgb(223,213,210)" stroke="rgb(223,213,210)" stroke-width="1" opacity="0.8313725490196079" d="M 215.5 341 L 218 341.5 L 215.5 342 L 215.5 341 Z " /><path fill="rgb(223,213,210)" stroke="rgb(223,213,210)" stroke-width="1" opacity="0.8313725490196079" d="M 367.5 342 L 368.5 344 L 367.5 342 Z " /><path fill="rgb(223,213,210)" stroke="rgb(223,213,210)" stroke-width="1" opacity="0.8313725490196079" d="M 90.5 344 L 89.5 346 L 90.5 344 Z " /><path fill="rgb(223,213,210)" stroke="rgb(223,213,210)" stroke-width="1" opacity="0.8313725490196079" d="M 371.5 345 L 372.5 347 L 371.5 345 Z " /><path fill="rgb(223,213,210)" stroke="rgb(223,213,210)" stroke-width="1" opacity="0.8313725490196079" d="M 374.5 347 L 375.5 349 L 374.5 347 Z " /><path fill="rgb(223,213,210)" stroke="rgb(223,213,210)" stroke-width="1" opacity="0.8313725490196079" d="M 427.5 347 L 428.5 349 L 427.5 347 Z " /><path fill="rgb(223,213,210)" stroke="rgb(223,213,210)" stroke-width="1" opacity="0.8313725490196079" d="M 377.5 349 L 379.5 352 L 377.5 349 Z " /><path fill="rgb(223,213,210)" stroke="rgb(223,213,210)" stroke-width="1" opacity="0.8313725490196079" d="M 381.5 352 L 382.5 354 L 381.5 352 Z " /><path fill="rgb(223,213,210)" stroke="rgb(223,213,210)" stroke-width="1" opacity="0.8313725490196079" d="M 384.5 354 L 386.5 357 L 384.5 354 Z " /><path fill="rgb(223,213,210)" stroke="rgb(223,213,210)" stroke-width="1" opacity="0.8313725490196079" d="M 429.5 354 L 424.5 360 L 429.5 354 Z " /><path fill="rgb(223,213,210)" stroke="rgb(223,213,210)" stroke-width="1" opacity="0.8313725490196079" d="M 83.5 355 L 82.5 357 L 83.5 355 Z " /><path fill="rgb(223,213,210)" stroke="rgb(223,213,210)" stroke-width="1" opacity="0.8313725490196079" d="M 388.5 357 L 389.5 359 L 388.5 357 Z " /><path fill="rgb(223,213,210)" stroke="rgb(223,213,210)" stroke-width="1" opacity="0.8313725490196079" d="M 391.5 359 L 392.5 361 L 391.5 359 Z " /><path fill="rgb(223,213,210)" stroke="rgb(223,213,210)" stroke-width="1" opacity="0.8313725490196079" d="M 80.5 360 Q 87.3 375.3 97 387.5 Q 112.5 407.5 131.5 424 Q 160.5 450 195.5 470 Q 218.7 483.8 248 491.5 L 245.5 492 L 219.5 483 L 188.5 467 L 162.5 450 L 123 418 L 120.5 414 L 114 408.5 Q 114.8 406.3 112.5 407 Q 91.4 387.4 80.5 360 Z " /><path fill="rgb(223,213,210)" stroke="rgb(223,213,210)" stroke-width="1" opacity="0.8313725490196079" d="M 394.5 361 L 396.5 364 L 394.5 361 Z " /><path fill="rgb(223,213,210)" stroke="rgb(223,213,210)" stroke-width="1" opacity="0.8313725490196079" d="M 400.5 365 L 401.5 367 L 400.5 365 Z " /><path fill="rgb(223,213,210)" stroke="rgb(223,213,210)" stroke-width="1" opacity="0.8313725490196079" d="M 403.5 367 L 404.5 369 L 403.5 367 Z " /><path fill="rgb(223,213,210)" stroke="rgb(223,213,210)" stroke-width="1" opacity="0.8313725490196079" d="M 406.5 369 L 418 379.5 L 422 388.5 L 421 388.5 L 419 382.5 L 409.5 372 L 406.5 369 Z " /><path fill="rgb(223,213,210)" stroke="rgb(223,213,210)" stroke-width="1" opacity="0.8313725490196079" d="M 422.5 390 L 423 400.5 Q 420.6 412.1 412.5 418 L 401.5 422 L 401.5 421 Q 411.8 419.3 417 412.5 Q 423.2 404.7 422.5 390 Z " /><path fill="rgb(223,213,210)" stroke="rgb(223,213,210)" stroke-width="1" opacity="0.8313725490196079" d="M 380 421 L 382 421.5 L 380.5 425 L 380 421 Z " /><path fill="rgb(223,213,210)" stroke="rgb(223,213,210)" stroke-width="1" opacity="0.8313725490196079" d="M 384.5 422 L 390 422.5 L 384.5 423 L 384.5 422 Z " /><path fill="rgb(223,213,210)" stroke="rgb(223,213,210)" stroke-width="1" opacity="0.8313725490196079" d="M 394.5 422 L 400 422.5 L 394.5 423 L 394.5 422 Z " /><path fill="rgb(223,213,210)" stroke="rgb(223,213,210)" stroke-width="1" opacity="0.8313725490196079" d="M 379.5 427 L 380 429.5 L 379 429.5 L 379.5 427 Z " /><path fill="rgb(223,213,210)" stroke="rgb(223,213,210)" stroke-width="1" opacity="0.8313725490196079" d="M 377.5 434 L 378 435.5 L 370.5 445 Q 366.4 448.9 357.5 448 L 357.5 447 Q 369.5 447.5 374 440.5 L 377.5 434 Z " /><path fill="rgb(223,213,210)" stroke="rgb(223,213,210)" stroke-width="1" opacity="0.8313725490196079" d="M 348.5 447 L 353 447.5 L 348.5 448 L 348.5 447 Z " /><path fill="rgb(223,213,210)" stroke="rgb(223,213,210)" stroke-width="1" opacity="0.8313725490196079" d="M 345.5 449 L 346 451.5 L 345 451.5 L 345.5 449 Z " /><path fill="rgb(223,213,210)" stroke="rgb(223,213,210)" stroke-width="1" opacity="0.8313725490196079" d="M 344.5 453 L 345 454.5 Q 341.6 465.1 333.5 471 Q 327.3 475.8 314.5 474 L 314.5 473 Q 332.4 475.4 338 465.5 L 344.5 453 Z " /><path fill="rgb(223,213,210)" stroke="rgb(223,213,210)" stroke-width="1" opacity="0.8313725490196079" d="M 303.5 470 L 306 470.5 L 303.5 471 L 303.5 470 Z " /><path fill="rgb(223,213,210)" stroke="rgb(223,213,210)" stroke-width="1" opacity="0.8313725490196079" d="M 302.5 472 L 303 473.5 Q 299.8 481.8 293.5 487 Q 289.1 492.1 280.5 493 L 280.5 492 L 285.5 491 L 295 485 L 302.5 472 Z " /><path fill="rgb(223,213,210)" stroke="rgb(223,213,210)" stroke-width="1" opacity="0.8313725490196079" d="M 249.5 492 L 253 492.5 L 249.5 493 L 249.5 492 Z " /><path fill="rgb(223,213,210)" stroke="rgb(223,213,210)" stroke-width="1" opacity="0.8313725490196079" d="M 254.5 493 L 260 493.5 L 254.5 494 L 254.5 493 Z " /><path fill="rgb(223,213,210)" stroke="rgb(223,213,210)" stroke-width="1" opacity="0.8313725490196079" d="M 275.5 493 L 279 493.5 L 275.5 494 L 275.5 493 Z " /><path fill="rgb(223,213,210)" stroke="rgb(223,213,210)" stroke-width="1" opacity="0.8313725490196079" d="M 261.5 494 L 273 494.5 L 261.5 495 L 261.5 494 Z " /><path fill="rgb(96,183,254)" stroke="rgb(96,183,254)" stroke-width="1" opacity="0.9803921568627451" d="M 404.5 192 Q 415.6 190.4 419 196.5 L 501 324.5 Q 504.7 328.8 503 338.5 L 497.5 345 L 456.5 371 L 446.5 372 L 438 365.5 L 424 340.5 L 362.5 245 Q 360.3 245.8 361 243.5 Q 354.5 239 355 227.5 L 361.5 219 L 404.5 192 Z " /><path fill="rgb(245,219,204)" stroke="rgb(245,219,204)" stroke-width="1" opacity="0.996078431372549" d="M 258.5 101 L 259 135.5 L 253 144.5 L 253 147.5 L 259 156.5 L 259 223.5 L 257 228 L 251.5 230 L 246 226.5 L 245 224.5 L 245 117.5 L 252 111.5 L 258.5 101 Z " /><path fill="rgb(245,219,204)" stroke="rgb(245,219,204)" stroke-width="1" opacity="0.996078431372549" d="M 228.5 272 L 226.5 275 L 228.5 272 Z " /><path fill="rgb(245,219,204)" stroke="rgb(245,219,204)" stroke-width="1" opacity="0.996078431372549" d="M 297.5 362 L 295.5 365 L 297.5 362 Z " /><path fill="rgb(245,219,204)" stroke="rgb(245,219,204)" stroke-width="1" opacity="0.996078431372549" d="M 308.5 363 L 309.5 365 L 308.5 363 Z " /><path fill="rgb(245,219,204)" stroke="rgb(245,219,204)" stroke-width="1" opacity="0.996078431372549" d="M 311.5 365 L 312.5 367 L 311.5 365 Z " /><path fill="rgb(245,219,204)" stroke="rgb(245,219,204)" stroke-width="1" opacity="0.996078431372549" d="M 294.5 367 L 295 369.5 L 294 369.5 L 294.5 367 Z " /><path fill="rgb(245,219,204)" stroke="rgb(245,219,204)" stroke-width="1" opacity="0.996078431372549" d="M 314.5 367 L 315.5 369 L 314.5 367 Z " /><path fill="rgb(245,219,204)" stroke="rgb(245,219,204)" stroke-width="1" opacity="0.996078431372549" d="M 317.5 369 L 318.5 371 L 317.5 369 Z " /><path fill="rgb(245,219,204)" stroke="rgb(245,219,204)" stroke-width="1" opacity="0.996078431372549" d="M 320.5 371 L 321.5 373 L 320.5 371 Z " /><path fill="rgb(245,219,204)" stroke="rgb(245,219,204)" stroke-width="1" opacity="0.996078431372549" d="M 296.5 373 L 297.5 375 L 296.5 373 Z " /><path fill="rgb(245,219,204)" stroke="rgb(245,219,204)" stroke-width="1" opacity="0.996078431372549" d="M 323.5 373 L 324.5 375 L 323.5 373 Z " /><path fill="rgb(245,219,204)" stroke="rgb(245,219,204)" stroke-width="1" opacity="0.996078431372549" d="M 299.5 375 L 300.5 377 L 299.5 375 Z " /><path fill="rgb(245,219,204)" stroke="rgb(245,219,204)" stroke-width="1" opacity="0.996078431372549" d="M 326.5 375 L 327.5 377 L 326.5 375 Z " /><path fill="rgb(245,219,204)" stroke="rgb(245,219,204)" stroke-width="1" opacity="0.996078431372549" d="M 302.5 377 L 303.5 379 L 302.5 377 Z " /><path fill="rgb(245,219,204)" stroke="rgb(245,219,204)" stroke-width="1" opacity="0.996078431372549" d="M 329.5 377 L 330.5 379 L 329.5 377 Z " /><path fill="rgb(245,219,204)" stroke="rgb(245,219,204)" stroke-width="1" opacity="0.996078431372549" d="M 305.5 379 L 309 381.5 L 307.5 381 L 305.5 379 Z " /><path fill="rgb(245,219,204)" stroke="rgb(245,219,204)" stroke-width="1" opacity="0.996078431372549" d="M 332.5 379 L 333.5 381 L 332.5 379 Z " /><path fill="rgb(245,219,204)" stroke="rgb(245,219,204)" stroke-width="1" opacity="0.996078431372549" d="M 310.5 382 L 311.5 384 L 310.5 382 Z " /><path fill="rgb(245,219,204)" stroke="rgb(245,219,204)" stroke-width="1" opacity="0.996078431372549" d="M 337.5 382 L 338.5 384 L 337.5 382 Z " /><path fill="rgb(245,219,204)" stroke="rgb(245,219,204)" stroke-width="1" opacity="0.996078431372549" d="M 313.5 384 L 314.5 386 L 313.5 384 Z " /><path fill="rgb(245,219,204)" stroke="rgb(245,219,204)" stroke-width="1" opacity="0.996078431372549" d="M 340.5 384 L 341.5 386 L 340.5 384 Z " /><path fill="rgb(245,219,204)" stroke="rgb(245,219,204)" stroke-width="1" opacity="0.996078431372549" d="M 316.5 386 L 317.5 388 L 316.5 386 Z " /><path fill="rgb(245,219,204)" stroke="rgb(245,219,204)" stroke-width="1" opacity="0.996078431372549" d="M 343.5 386 L 344.5 388 L 343.5 386 Z " /><path fill="rgb(245,219,204)" stroke="rgb(245,219,204)" stroke-width="1" opacity="0.996078431372549" d="M 319.5 388 L 320.5 390 L 319.5 388 Z " /><path fill="rgb(245,219,204)" stroke="rgb(245,219,204)" stroke-width="1" opacity="0.996078431372549" d="M 346.5 388 L 351 391.5 L 349.5 391 L 346.5 388 Z " /><path fill="rgb(245,219,204)" stroke="rgb(245,219,204)" stroke-width="1" opacity="0.996078431372549" d="M 322.5 390 L 323.5 392 L 322.5 390 Z " /><path fill="rgb(245,219,204)" stroke="rgb(245,219,204)" stroke-width="1" opacity="0.996078431372549" d="M 325.5 392 L 326.5 394 L 325.5 392 Z " /><path fill="rgb(245,219,204)" stroke="rgb(245,219,204)" stroke-width="1" opacity="0.996078431372549" d="M 352.5 392 L 353.5 394 L 352.5 392 Z " /><path fill="rgb(245,219,204)" stroke="rgb(245,219,204)" stroke-width="1" opacity="0.996078431372549" d="M 328.5 394 L 329.5 396 L 328.5 394 Z " /><path fill="rgb(245,219,204)" stroke="rgb(245,219,204)" stroke-width="1" opacity="0.996078431372549" d="M 355.5 394 L 356.5 396 L 355.5 394 Z " /><path fill="rgb(245,219,204)" stroke="rgb(245,219,204)" stroke-width="1" opacity="0.996078431372549" d="M 331.5 396 L 332.5 398 L 331.5 396 Z " /><path fill="rgb(245,219,204)" stroke="rgb(245,219,204)" stroke-width="1" opacity="0.996078431372549" d="M 358.5 396 L 359.5 398 L 358.5 396 Z " /><path fill="rgb(245,219,204)" stroke="rgb(245,219,204)" stroke-width="1" opacity="0.996078431372549" d="M 334.5 398 L 335.5 400 L 334.5 398 Z " /><path fill="rgb(245,219,204)" stroke="rgb(245,219,204)" stroke-width="1" opacity="0.996078431372549" d="M 361.5 398 L 362.5 400 L 361.5 398 Z " /><path fill="rgb(245,219,204)" stroke="rgb(245,219,204)" stroke-width="1" opacity="0.996078431372549" d="M 337.5 400 L 338.5 402 L 337.5 400 Z " /><path fill="rgb(245,219,204)" stroke="rgb(245,219,204)" stroke-width="1" opacity="0.996078431372549" d="M 364.5 400 L 365.5 402 L 364.5 400 Z " /><path fill="rgb(245,219,204)" stroke="rgb(245,219,204)" stroke-width="1" opacity="0.996078431372549" d="M 288.5 401 Q 293.3 401.3 295 404.5 L 292.5 403 L 288.5 402 L 288.5 401 Z " /><path fill="rgb(245,219,204)" stroke="rgb(245,219,204)" stroke-width="1" opacity="0.996078431372549" d="M 283.5 402 L 281.5 405 L 283.5 402 Z " /><path fill="rgb(245,219,204)" stroke="rgb(245,219,204)" stroke-width="1" opacity="0.996078431372549" d="M 340.5 402 L 341.5 404 L 340.5 402 Z " /><path fill="rgb(245,219,204)" stroke="rgb(245,219,204)" stroke-width="1" opacity="0.996078431372549" d="M 367.5 402 L 368.5 404 L 367.5 402 Z " /><path fill="rgb(245,219,204)" stroke="rgb(245,219,204)" stroke-width="1" opacity="0.996078431372549" d="M 343.5 404 L 344.5 406 L 343.5 404 Z " /><path fill="rgb(245,219,204)" stroke="rgb(245,219,204)" stroke-width="1" opacity="0.996078431372549" d="M 370.5 404 L 371.5 406 L 370.5 404 Z " /><path fill="rgb(245,219,204)" stroke="rgb(245,219,204)" stroke-width="1" opacity="0.996078431372549" d="M 296.5 405 L 297.5 407 L 296.5 405 Z " /><path fill="rgb(245,219,204)" stroke="rgb(245,219,204)" stroke-width="1" opacity="0.996078431372549" d="M 346.5 406 L 347.5 408 L 346.5 406 Z " /><path fill="rgb(245,219,204)" stroke="rgb(245,219,204)" stroke-width="1" opacity="0.996078431372549" d="M 373.5 406 L 374.5 408 L 373.5 406 Z " /><path fill="rgb(245,219,204)" stroke="rgb(245,219,204)" stroke-width="1" opacity="0.996078431372549" d="M 280.5 407 L 281 410.5 L 280 410.5 L 280.5 407 Z " /><path fill="rgb(245,219,204)" stroke="rgb(245,219,204)" stroke-width="1" opacity="0.996078431372549" d="M 299.5 407 L 300.5 409 L 299.5 407 Z " /><path fill="rgb(245,219,204)" stroke="rgb(245,219,204)" stroke-width="1" opacity="0.996078431372549" d="M 349.5 408 L 350.5 410 L 349.5 408 Z " /><path fill="rgb(245,219,204)" stroke="rgb(245,219,204)" stroke-width="1" opacity="0.996078431372549" d="M 376.5 408 L 377.5 410 L 376.5 408 Z " /><path fill="rgb(245,219,204)" stroke="rgb(245,219,204)" stroke-width="1" opacity="0.996078431372549" d="M 302.5 409 L 303.5 411 L 302.5 409 Z " /><path fill="rgb(245,219,204)" stroke="rgb(245,219,204)" stroke-width="1" opacity="0.996078431372549" d="M 352.5 410 L 353.5 412 L 352.5 410 Z " /><path fill="rgb(245,219,204)" stroke="rgb(245,219,204)" stroke-width="1" opacity="0.996078431372549" d="M 379.5 410 L 380.5 412 L 379.5 410 Z " /><path fill="rgb(245,219,204)" stroke="rgb(245,219,204)" stroke-width="1" opacity="0.996078431372549" d="M 305.5 411 L 306.5 413 L 305.5 411 Z " /><path fill="rgb(245,219,204)" stroke="rgb(245,219,204)" stroke-width="1" opacity="0.996078431372549" d="M 281.5 412 L 284.5 416 L 281.5 412 Z " /><path fill="rgb(245,219,204)" stroke="rgb(245,219,204)" stroke-width="1" opacity="0.996078431372549" d="M 355.5 412 L 356.5 414 L 355.5 412 Z " /><path fill="rgb(245,219,204)" stroke="rgb(245,219,204)" stroke-width="1" opacity="0.996078431372549" d="M 382.5 412 L 384.5 415 L 382.5 412 Z " /><path fill="rgb(245,219,204)" stroke="rgb(245,219,204)" stroke-width="1" opacity="0.996078431372549" d="M 308.5 413 L 310.5 416 L 308.5 413 Z " /><path fill="rgb(245,219,204)" stroke="rgb(245,219,204)" stroke-width="1" opacity="0.996078431372549" d="M 358.5 414 L 359.5 416 L 358.5 414 Z " /><path fill="rgb(245,219,204)" stroke="rgb(245,219,204)" stroke-width="1" opacity="0.996078431372549" d="M 386.5 415 L 387.5 417 L 386.5 415 Z " /><path fill="rgb(245,219,204)" stroke="rgb(245,219,204)" stroke-width="1" opacity="0.996078431372549" d="M 286.5 416 L 287.5 418 L 286.5 416 Z " /><path fill="rgb(245,219,204)" stroke="rgb(245,219,204)" stroke-width="1" opacity="0.996078431372549" d="M 312.5 416 L 313.5 418 L 312.5 416 Z " /><path fill="rgb(245,219,204)" stroke="rgb(245,219,204)" stroke-width="1" opacity="0.996078431372549" d="M 361.5 416 L 362.5 418 L 361.5 416 Z " /><path fill="rgb(245,219,204)" stroke="rgb(245,219,204)" stroke-width="1" opacity="0.996078431372549" d="M 389.5 417 L 390.5 419 L 389.5 417 Z " /><path fill="rgb(245,219,204)" stroke="rgb(245,219,204)" stroke-width="1" opacity="0.996078431372549" d="M 289.5 418 L 290.5 420 L 289.5 418 Z " /><path fill="rgb(245,219,204)" stroke="rgb(245,219,204)" stroke-width="1" opacity="0.996078431372549" d="M 315.5 418 L 316.5 420 L 315.5 418 Z " /><path fill="rgb(245,219,204)" stroke="rgb(245,219,204)" stroke-width="1" opacity="0.996078431372549" d="M 364.5 418 L 365.5 420 L 364.5 418 Z " /><path fill="rgb(245,219,204)" stroke="rgb(245,219,204)" stroke-width="1" opacity="0.996078431372549" d="M 392.5 419 L 393.5 421 L 392.5 419 Z " /><path fill="rgb(245,219,204)" stroke="rgb(245,219,204)" stroke-width="1" opacity="0.996078431372549" d="M 292.5 420 L 293.5 422 L 292.5 420 Z " /><path fill="rgb(245,219,204)" stroke="rgb(245,219,204)" stroke-width="1" opacity="0.996078431372549" d="M 318.5 420 L 319.5 422 L 318.5 420 Z " /><path fill="rgb(245,219,204)" stroke="rgb(245,219,204)" stroke-width="1" opacity="0.996078431372549" d="M 367.5 420 L 368.5 422 L 367.5 420 Z " /><path fill="rgb(245,219,204)" stroke="rgb(245,219,204)" stroke-width="1" opacity="0.996078431372549" d="M 295.5 422 L 297.5 425 L 295.5 422 Z " /><path fill="rgb(245,219,204)" stroke="rgb(245,219,204)" stroke-width="1" opacity="0.996078431372549" d="M 321.5 422 L 322.5 424 L 321.5 422 Z " /><path fill="rgb(245,219,204)" stroke="rgb(245,219,204)" stroke-width="1" opacity="0.996078431372549" d="M 370.5 422 L 371.5 424 L 370.5 422 Z " /><path fill="rgb(245,219,204)" stroke="rgb(245,219,204)" stroke-width="1" opacity="0.996078431372549" d="M 373.5 424 L 374.5 426 L 373.5 424 Z " /><path fill="rgb(245,219,204)" stroke="rgb(245,219,204)" stroke-width="1" opacity="0.996078431372549" d="M 299.5 425 L 300.5 427 L 299.5 425 Z " /><path fill="rgb(245,219,204)" stroke="rgb(245,219,204)" stroke-width="1" opacity="0.996078431372549" d="M 325.5 425 L 326.5 427 L 325.5 425 Z " /><path fill="rgb(245,219,204)" stroke="rgb(245,219,204)" stroke-width="1" opacity="0.996078431372549" d="M 376.5 426 L 377.5 428 L 376.5 426 Z " /><path fill="rgb(245,219,204)" stroke="rgb(245,219,204)" stroke-width="1" opacity="0.996078431372549" d="M 302.5 427 L 303.5 429 L 302.5 427 Z " /><path fill="rgb(245,219,204)" stroke="rgb(245,219,204)" stroke-width="1" opacity="0.996078431372549" d="M 328.5 427 L 329.5 429 L 328.5 427 Z " /><path fill="rgb(245,219,204)" stroke="rgb(245,219,204)" stroke-width="1" opacity="0.996078431372549" d="M 305.5 429 L 306.5 431 L 305.5 429 Z " /><path fill="rgb(245,219,204)" stroke="rgb(245,219,204)" stroke-width="1" opacity="0.996078431372549" d="M 331.5 429 L 332.5 431 L 331.5 429 Z " /><path fill="rgb(245,219,204)" stroke="rgb(245,219,204)" stroke-width="1" opacity="0.996078431372549" d="M 308.5 431 L 310.5 434 L 308.5 431 Z " /><path fill="rgb(245,219,204)" stroke="rgb(245,219,204)" stroke-width="1" opacity="0.996078431372549" d="M 334.5 431 L 335.5 433 L 334.5 431 Z " /><path fill="rgb(245,219,204)" stroke="rgb(245,219,204)" stroke-width="1" opacity="0.996078431372549" d="M 337.5 433 L 338.5 435 L 337.5 433 Z " /><path fill="rgb(245,219,204)" stroke="rgb(245,219,204)" stroke-width="1" opacity="0.996078431372549" d="M 312.5 434 L 313.5 436 L 312.5 434 Z " /><path fill="rgb(245,219,204)" stroke="rgb(245,219,204)" stroke-width="1" opacity="0.996078431372549" d="M 340.5 435 L 341.5 437 L 340.5 435 Z " /><path fill="rgb(245,219,204)" stroke="rgb(245,219,204)" stroke-width="1" opacity="0.996078431372549" d="M 315.5 436 L 316.5 438 L 315.5 436 Z " /><path fill="rgb(245,219,204)" stroke="rgb(245,219,204)" stroke-width="1" opacity="0.996078431372549" d="M 343.5 437 L 344.5 439 L 343.5 437 Z " /><path fill="rgb(245,219,204)" stroke="rgb(245,219,204)" stroke-width="1" opacity="0.996078431372549" d="M 265.5 438 L 262.5 442 L 265.5 438 Z " /><path fill="rgb(245,219,204)" stroke="rgb(245,219,204)" stroke-width="1" opacity="0.996078431372549" d="M 318.5 438 L 319.5 440 L 318.5 438 Z " /><path fill="rgb(245,219,204)" stroke="rgb(245,219,204)" stroke-width="1" opacity="0.996078431372549" d="M 346.5 439 L 347.5 441 L 346.5 439 Z " /><path fill="rgb(245,219,204)" stroke="rgb(245,219,204)" stroke-width="1" opacity="0.996078431372549" d="M 275.5 440 L 277.5 443 L 275.5 440 Z " /><path fill="rgb(245,219,204)" stroke="rgb(245,219,204)" stroke-width="1" opacity="0.996078431372549" d="M 321.5 440 L 322.5 442 L 321.5 440 Z " /><path fill="rgb(245,219,204)" stroke="rgb(245,219,204)" stroke-width="1" opacity="0.996078431372549" d="M 349.5 441 L 350.5 443 L 349.5 441 Z " /><path fill="rgb(245,219,204)" stroke="rgb(245,219,204)" stroke-width="1" opacity="0.996078431372549" d="M 324.5 442 L 325.5 444 L 324.5 442 Z " /><path fill="rgb(245,219,204)" stroke="rgb(245,219,204)" stroke-width="1" opacity="0.996078431372549" d="M 279.5 443 L 282.5 447 L 279.5 443 Z " /><path fill="rgb(245,219,204)" stroke="rgb(245,219,204)" stroke-width="1" opacity="0.996078431372549" d="M 352.5 443 L 353.5 445 L 352.5 443 Z " /><path fill="rgb(245,219,204)" stroke="rgb(245,219,204)" stroke-width="1" opacity="0.996078431372549" d="M 327.5 444 L 328.5 446 L 327.5 444 Z " /><path fill="rgb(245,219,204)" stroke="rgb(245,219,204)" stroke-width="1" opacity="0.996078431372549" d="M 355.5 445 L 356.5 447 L 355.5 445 Z " /><path fill="rgb(245,219,204)" stroke="rgb(245,219,204)" stroke-width="1" opacity="0.996078431372549" d="M 330.5 446 L 331.5 448 L 330.5 446 Z " /><path fill="rgb(245,219,204)" stroke="rgb(245,219,204)" stroke-width="1" opacity="0.996078431372549" d="M 284.5 447 L 287.5 451 L 284.5 447 Z " /><path fill="rgb(245,219,204)" stroke="rgb(245,219,204)" stroke-width="1" opacity="0.996078431372549" d="M 262.5 448 L 267.5 454 L 262.5 448 Z " /><path fill="rgb(245,219,204)" stroke="rgb(245,219,204)" stroke-width="1" opacity="0.996078431372549" d="M 333.5 448 L 335.5 451 L 333.5 448 Z " /><path fill="rgb(245,219,204)" stroke="rgb(245,219,204)" stroke-width="1" opacity="0.996078431372549" d="M 289.5 451 L 291.5 454 L 289.5 451 Z " /><path fill="rgb(245,219,204)" stroke="rgb(245,219,204)" stroke-width="1" opacity="0.996078431372549" d="M 337.5 451 L 338.5 453 L 337.5 451 Z " /><path fill="rgb(245,219,204)" stroke="rgb(245,219,204)" stroke-width="1" opacity="0.996078431372549" d="M 340.5 453 L 341.5 455 L 340.5 453 Z " /><path fill="rgb(245,219,204)" stroke="rgb(245,219,204)" stroke-width="1" opacity="0.996078431372549" d="M 269.5 454 L 272.5 458 L 269.5 454 Z " /><path fill="rgb(245,219,204)" stroke="rgb(245,219,204)" stroke-width="1" opacity="0.996078431372549" d="M 294.5 455 L 296.5 458 L 294.5 455 Z " /><path fill="rgb(245,219,204)" stroke="rgb(245,219,204)" stroke-width="1" opacity="0.996078431372549" d="M 274.5 458 L 277.5 462 L 274.5 458 Z " /><path fill="rgb(245,219,204)" stroke="rgb(245,219,204)" stroke-width="1" opacity="0.996078431372549" d="M 298.5 458 L 301.5 462 L 298.5 458 Z " /><path fill="rgb(245,219,204)" stroke="rgb(245,219,204)" stroke-width="1" opacity="0.996078431372549" d="M 279.5 462 L 281.5 465 L 279.5 462 Z " /><path fill="rgb(245,219,204)" stroke="rgb(245,219,204)" stroke-width="1" opacity="0.996078431372549" d="M 303.5 462 L 305.5 465 L 303.5 462 Z " /><path fill="rgb(245,219,204)" stroke="rgb(245,219,204)" stroke-width="1" opacity="0.996078431372549" d="M 307.5 465 L 309.5 468 L 307.5 465 Z " /><path fill="rgb(245,219,204)" stroke="rgb(245,219,204)" stroke-width="1" opacity="0.996078431372549" d="M 284.5 466 L 286.5 469 L 284.5 466 Z " /><path fill="rgb(245,219,204)" stroke="rgb(245,219,204)" stroke-width="1" opacity="0.996078431372549" d="M 288.5 469 L 291.5 473 L 288.5 469 Z " /><path fill="rgb(245,219,204)" stroke="rgb(245,219,204)" stroke-width="1" opacity="0.996078431372549" d="M 312.5 469 L 313.5 471 L 312.5 469 Z " /><path fill="rgb(245,219,204)" stroke="rgb(245,219,204)" stroke-width="1" opacity="0.996078431372549" d="M 293.5 473 L 295.5 476 L 293.5 473 Z " /><path fill="rgb(245,219,204)" stroke="rgb(245,219,204)" stroke-width="1" opacity="0.996078431372549" d="M 297.5 476 L 298.5 478 L 297.5 476 Z " /><path fill="rgb(246,220,205)" stroke="rgb(246,220,205)" stroke-width="1" opacity="1" d="M 220.5 244 Q 236.6 241.9 243 249.5 L 247 257 L 245 257 Q 246.1 259.7 243.5 259 L 226 274.5 L 204 302.5 L 197 318.5 L 196 331.5 Q 197.5 338 202.5 341 Q 208.4 343.6 218.5 342 Q 233 338 244.5 331 Q 265.6 318.1 283.5 302 Q 287 299.5 294.5 301 L 308.5 306 L 335.5 321 L 390.5 360 L 410 372 Q 408.9 374.7 411.5 374 L 421 386.5 Q 423.4 391.6 422 400.5 L 417 412.5 L 413.5 416 Q 407.3 421.3 396.5 422 L 308.5 363 Q 305.8 360.2 299.5 361 L 295 364.5 L 294 369.5 L 297.5 375 L 379 428 Q 377.8 437.6 371.5 443 Q 367.5 448 357.5 447 L 292.5 402 L 285.5 401 L 281 404.5 L 280 410.5 L 284.5 416 L 343 455 L 342 459.5 L 333.5 470 Q 328.3 474.3 317.5 473 L 275.5 440 L 268.5 437 L 262 441.5 L 261 445.5 Q 262.4 451.6 267.5 454 L 299 478.5 L 289.5 489 L 274.5 494 L 260.5 494 L 241.5 490 L 219.5 482 L 177.5 459 Q 137.4 433.1 106 398.5 L 88 374.5 L 81 359.5 L 151 249 L 165.5 253 L 180.5 253 L 220.5 244 Z " /></svg>