<svg width="512" height="512" version="1.1" xmlns="http://www.w3.org/2000/svg" desc="Created with imagetracer.js version 1.2.6" ><path fill="rgb(0,171,147)" stroke="rgb(0,171,147)" stroke-width="1" opacity="0.996078431372549" d="M 316.5 73 L 323.5 73 L 332 78.5 L 335 84.5 L 335 91.5 L 332 97.5 L 271 159.5 L 271 241 L 256.5 241 L 256 240.5 L 256 130.5 L 310.5 76 L 316.5 73 Z " /><path fill="rgb(0,0,0)" stroke="rgb(0,0,0)" stroke-width="1" opacity="0" d="M 0 0 L 342 0.5 Q 302.2 7.2 281 32.5 Q 268.3 46.3 261 65.5 L 256 86.5 L 255.5 108 Q 253.2 90.8 246 78.5 Q 238 64.5 226.5 54 Q 210.2 38.8 184.5 33 L 179.5 32 L 121.5 32 L 115 36.5 L 112 41.5 L 112 99.5 Q 118.6 134.9 141.5 154 Q 155.3 166.7 175.5 173 L 188.5 176 L 233.5 176 L 241 183.5 L 241 240.5 L 240.5 241 L 9.5 241 L 3 245.5 L 0.5 250 L 0 0 Z " /><path fill="rgb(0,0,0)" stroke="rgb(0,0,0)" stroke-width="1" opacity="0" d="M 399.5 0 L 512 0 L 512 249.5 L 511 249.5 L 507.5 244 L 502.5 241 L 271 241 L 271 159.5 L 278.5 152 L 321.5 152 L 339.5 148 Q 366.2 138.7 383 119.5 Q 398.9 102.4 406 76.5 L 408 65.5 L 408 9.5 L 403.5 3 Q 398.8 2.2 399.5 0 Z " /><path fill="rgb(0,0,0)" stroke="rgb(0,0,0)" stroke-width="1" opacity="0" d="M 0.5 279 L 3 301.5 L 9 327.5 L 16 348.5 L 31 380.5 Q 53.9 420.6 87.5 450 Q 117 476.5 156.5 493 L 196.5 506 L 217.5 510 L 233 511.5 L 0 512 L 0.5 279 Z " /><path fill="rgb(0,0,0)" stroke="rgb(0,0,0)" stroke-width="1" opacity="0" d="M 511.5 279 L 512 512 L 279 511.5 L 301.5 509 L 327.5 503 Q 356.5 494.5 380.5 481 Q 420.6 458.1 450 424.5 Q 477 394 494 353.5 L 503 327.5 L 507 311.5 L 511.5 279 Z " /><path fill="rgb(97,203,226)" stroke="rgb(97,203,226)" stroke-width="1" opacity="0.7490196078431373" d="M 425.5 448 L 424.5 450 L 425.5 448 Z " /><path fill="rgb(97,203,226)" stroke="rgb(97,203,226)" stroke-width="1" opacity="0.7490196078431373" d="M 88.5 449 Q 126.9 484.6 184 501.5 L 181.5 502 Q 150.2 492.3 124.5 477 L 98.5 459 L 88.5 449 Z " /><path fill="rgb(97,203,226)" stroke="rgb(97,203,226)" stroke-width="1" opacity="0.7490196078431373" d="M 185.5 502 L 200 505.5 L 196.5 506 L 185.5 503 L 185.5 502 Z " /><path fill="rgb(97,203,226)" stroke="rgb(97,203,226)" stroke-width="1" opacity="0.7490196078431373" d="M 201.5 506 L 210 507.5 L 205.5 508 L 201.5 507 L 201.5 506 Z " /><path fill="rgb(97,203,226)" stroke="rgb(97,203,226)" stroke-width="1" opacity="0.7490196078431373" d="M 211.5 508 L 216 508.5 L 211.5 509 L 211.5 508 Z " /><path fill="rgb(97,203,226)" stroke="rgb(97,203,226)" stroke-width="1" opacity="0.7490196078431373" d="M 217.5 509 L 223 509.5 L 217.5 510 L 217.5 509 Z " /><path fill="rgb(97,203,226)" stroke="rgb(97,203,226)" stroke-width="1" opacity="0.7490196078431373" d="M 224.5 510 L 232 510.5 L 224.5 511 L 224.5 510 Z " /><path fill="rgb(97,203,226)" stroke="rgb(97,203,226)" stroke-width="1" opacity="0.7490196078431373" d="M 233.5 511 L 249 511.5 L 233.5 512 L 233.5 511 Z " /><path fill="rgb(97,215,122)" stroke="rgb(97,215,122)" stroke-width="1" opacity="0.5058823529411764" d="M 342.5 0 L 349 0.5 L 342.5 1 L 342.5 0 Z " /><path fill="rgb(97,215,122)" stroke="rgb(97,215,122)" stroke-width="1" opacity="0.5058823529411764" d="M 396.5 0 Q 402.3 0.7 405 4.5 L 408 11.5 L 407 11.5 Q 406.1 4.3 400.5 2 L 396.5 1 L 396.5 0 Z " /><path fill="rgb(97,215,122)" stroke="rgb(97,215,122)" stroke-width="1" opacity="0.5058823529411764" d="M 336.5 1 L 340 1.5 L 336.5 2 L 336.5 1 Z " /><path fill="rgb(97,215,122)" stroke="rgb(97,215,122)" stroke-width="1" opacity="0.5058823529411764" d="M 331.5 2 L 335 2.5 L 328.5 4 L 328.5 3 L 331.5 2 Z " /><path fill="rgb(97,215,122)" stroke="rgb(97,215,122)" stroke-width="1" opacity="0.5058823529411764" d="M 324.5 4 L 327 4.5 Q 299.1 13.1 282 32.5 Q 267.5 48 260.5 71 L 260 68.5 Q 269.3 41.8 288.5 25 Q 303.3 11.3 324.5 4 Z " /><path fill="rgb(97,215,122)" stroke="rgb(97,215,122)" stroke-width="1" opacity="0.5058823529411764" d="M 407.5 59 L 408 65.5 L 407 65.5 L 407.5 59 Z " /><path fill="rgb(97,215,122)" stroke="rgb(97,215,122)" stroke-width="1" opacity="0.5058823529411764" d="M 406.5 68 L 407 71.5 L 406 71.5 L 406.5 68 Z " /><path fill="rgb(97,215,122)" stroke="rgb(97,215,122)" stroke-width="1" opacity="0.5058823529411764" d="M 259.5 72 L 260 74.5 L 258.5 79 L 258 75.5 L 259.5 72 Z " /><path fill="rgb(97,215,122)" stroke="rgb(97,215,122)" stroke-width="1" opacity="0.5058823529411764" d="M 405.5 73 L 406 76.5 L 404.5 80 L 404 77.5 L 405.5 73 Z " /><path fill="rgb(97,215,122)" stroke="rgb(97,215,122)" stroke-width="1" opacity="0.5058823529411764" d="M 257.5 80 L 258 83.5 L 257 83.5 L 257.5 80 Z " /><path fill="rgb(97,215,122)" stroke="rgb(97,215,122)" stroke-width="1" opacity="0.5058823529411764" d="M 403.5 81 L 404 83.5 L 402.5 86 L 402 84.5 L 403.5 81 Z " /><path fill="rgb(97,215,122)" stroke="rgb(97,215,122)" stroke-width="1" opacity="0.5058823529411764" d="M 256.5 86 L 257 92.5 L 256 92.5 L 256.5 86 Z " /><path fill="rgb(97,215,122)" stroke="rgb(97,215,122)" stroke-width="1" opacity="0.5058823529411764" d="M 401.5 87 L 402 88.5 Q 392.8 111.8 375.5 127 Q 362.5 139.5 343.5 146 L 343.5 145 Q 366.4 136.9 381 120.5 Q 394.3 106.8 401.5 87 Z " /><path fill="rgb(97,215,122)" stroke="rgb(97,215,122)" stroke-width="1" opacity="0.5058823529411764" d="M 340.5 146 L 342 146.5 L 337.5 148 L 337.5 147 L 340.5 146 Z " /><path fill="rgb(97,215,122)" stroke="rgb(97,215,122)" stroke-width="1" opacity="0.5058823529411764" d="M 135.5 147 L 136.5 149 L 135.5 147 Z " /><path fill="rgb(97,215,122)" stroke="rgb(97,215,122)" stroke-width="1" opacity="0.5058823529411764" d="M 333.5 148 L 336 148.5 L 329.5 150 L 329.5 149 L 333.5 148 Z " /><path fill="rgb(97,215,122)" stroke="rgb(97,215,122)" stroke-width="1" opacity="0.5058823529411764" d="M 324.5 150 L 328 150.5 L 324.5 151 L 324.5 150 Z " /><path fill="rgb(97,215,122)" stroke="rgb(97,215,122)" stroke-width="1" opacity="0.5058823529411764" d="M 315.5 151 L 322 151.5 L 315.5 152 L 315.5 151 Z " /><path fill="rgb(97,215,122)" stroke="rgb(97,215,122)" stroke-width="1" opacity="0.5058823529411764" d="M 234.5 176 L 241 181.5 L 240.5 183 L 234.5 176 Z " /><path fill="rgb(96,213,124)" stroke="rgb(96,213,124)" stroke-width="1" opacity="0.996078431372549" d="M 349.5 0 L 395.5 0 Q 402.7 1.8 406 7.5 L 408 12.5 L 408 58.5 L 407 59.5 L 406 72.5 L 400 91.5 Q 391.3 111.3 376.5 125 Q 360.4 140.4 336.5 148 L 314.5 152 L 278.5 152 L 332 97.5 L 335 91.5 L 335 84.5 L 329.5 76 L 323.5 73 L 316.5 73 L 310.5 76 L 256.5 130 L 256 93.5 L 257 92.5 L 258 79.5 L 264 60.5 Q 272.7 40.7 287.5 27 Q 299.8 15.3 316.5 8 L 335.5 2 L 348.5 1 L 349.5 0 Z " /><path fill="rgb(96,213,124)" stroke="rgb(96,213,124)" stroke-width="1" opacity="0.996078431372549" d="M 188.5 97 L 195.5 97 L 201.5 100 L 244.5 142 L 256 131.5 L 256 240.5 L 255.5 241 L 241 241 L 241 181.5 L 235.5 176 L 180 121.5 L 177 115.5 L 177 108.5 L 182.5 100 L 188.5 97 Z " /><path fill="rgb(96,213,124)" stroke="rgb(96,213,124)" stroke-width="1" opacity="0.996078431372549" d="M 271 241 L 446.5 241 L 447 241.5 L 447 248.5 L 446 249.5 L 446 256.5 L 443 272.5 L 438 317.5 Q 435 329 426.5 335 L 290.5 421 Q 283.2 427.2 267.5 425 L 256 420 L 256 320.5 L 255 319.5 L 271 299.5 L 271 241 Z " /><path fill="rgb(96,213,124)" stroke="rgb(96,213,124)" stroke-width="1" opacity="0.996078431372549" d="M 109.5 294 L 110.5 296 L 109.5 294 Z " /><path fill="rgb(96,213,124)" stroke="rgb(96,213,124)" stroke-width="1" opacity="0.996078431372549" d="M 253.5 322 L 252.5 324 L 253.5 322 Z " /><path fill="rgb(96,213,124)" stroke="rgb(96,213,124)" stroke-width="1" opacity="0.996078431372549" d="M 250.5 326 L 249.5 328 L 250.5 326 Z " /><path fill="rgb(96,213,124)" stroke="rgb(96,213,124)" stroke-width="1" opacity="0.996078431372549" d="M 247.5 330 L 246.5 332 L 247.5 330 Z " /><path fill="rgb(96,213,124)" stroke="rgb(96,213,124)" stroke-width="1" opacity="0.996078431372549" d="M 244.5 334 L 243.5 336 L 244.5 334 Z " /><path fill="rgb(96,213,124)" stroke="rgb(96,213,124)" stroke-width="1" opacity="0.996078431372549" d="M 241.5 338 L 240.5 340 L 241.5 338 Z " /><path fill="rgb(96,213,124)" stroke="rgb(96,213,124)" stroke-width="1" opacity="0.996078431372549" d="M 238.5 342 L 237.5 344 L 238.5 342 Z " /><path fill="rgb(96,213,124)" stroke="rgb(96,213,124)" stroke-width="1" opacity="0.996078431372549" d="M 235.5 346 L 234.5 348 L 235.5 346 Z " /><path fill="rgb(96,213,124)" stroke="rgb(96,213,124)" stroke-width="1" opacity="0.996078431372549" d="M 226.5 365 L 227 372.5 L 226 372.5 L 226.5 365 Z " /><path fill="rgb(96,213,124)" stroke="rgb(96,213,124)" stroke-width="1" opacity="0.996078431372549" d="M 231.5 385 L 232.5 387 L 231.5 385 Z " /><path fill="rgb(96,213,124)" stroke="rgb(96,213,124)" stroke-width="1" opacity="0.996078431372549" d="M 233.5 388 L 234.5 390 L 233.5 388 Z " /><path fill="rgb(96,213,124)" stroke="rgb(96,213,124)" stroke-width="1" opacity="0.996078431372549" d="M 235.5 391 L 236.5 393 L 235.5 391 Z " /><path fill="rgb(96,213,124)" stroke="rgb(96,213,124)" stroke-width="1" opacity="0.996078431372549" d="M 237.5 394 L 238.5 396 L 237.5 394 Z " /><path fill="rgb(96,213,124)" stroke="rgb(96,213,124)" stroke-width="1" opacity="0.996078431372549" d="M 239.5 397 L 240.5 399 L 239.5 397 Z " /><path fill="rgb(96,213,124)" stroke="rgb(96,213,124)" stroke-width="1" opacity="0.996078431372549" d="M 241.5 400 L 242.5 402 L 241.5 400 Z " /><path fill="rgb(96,213,124)" stroke="rgb(96,213,124)" stroke-width="1" opacity="0.996078431372549" d="M 243.5 403 L 244.5 405 L 243.5 403 Z " /><path fill="rgb(96,213,124)" stroke="rgb(96,213,124)" stroke-width="1" opacity="0.996078431372549" d="M 245.5 406 L 246.5 408 L 245.5 406 Z " /><path fill="rgb(96,213,124)" stroke="rgb(96,213,124)" stroke-width="1" opacity="0.996078431372549" d="M 247.5 409 L 248.5 411 L 247.5 409 Z " /><path fill="rgb(96,213,124)" stroke="rgb(96,213,124)" stroke-width="1" opacity="0.996078431372549" d="M 134.5 436 L 133.5 438 L 134.5 436 Z " /><path fill="rgb(96,213,124)" stroke="rgb(96,213,124)" stroke-width="1" opacity="0.996078431372549" d="M 98.5 448 L 106 448.5 L 98.5 449 L 98.5 448 Z " /><path fill="rgb(106,167,254)" stroke="rgb(106,167,254)" stroke-width="1" opacity="0.9921568627450981" d="M 256 241 L 270.5 241 L 271 241.5 L 271 298.5 L 256.5 318 L 256 241 Z " /><path fill="rgb(106,167,254)" stroke="rgb(106,167,254)" stroke-width="1" opacity="0.9921568627450981" d="M 448 241 L 501.5 241 L 509 245.5 L 512 250.5 L 512 277.5 L 511 278.5 L 511 287.5 L 510 288.5 L 509 301.5 L 504 323.5 L 495 350.5 L 483 376.5 Q 460.6 418.1 426.5 448 Q 394.4 477.4 350.5 495 L 323.5 504 L 300.5 509 L 288.5 510 L 287.5 511 L 278.5 511 L 277.5 512 L 256 512 L 256.5 420 Q 263.6 426.4 277.5 426 L 285.5 424 L 305.5 412 L 419.5 340 L 434 327.5 L 439 313.5 L 443 274.5 L 445 266.5 L 447 243.5 L 448 241 Z " /><path fill="rgb(202,229,87)" stroke="rgb(202,229,87)" stroke-width="1" opacity="0.9882352941176471" d="M 122.5 32 L 178.5 32 Q 179.8 34.3 184.5 33 Q 211.4 39.1 228 55.5 Q 227.3 57.8 229.5 57 Q 244.2 71.3 252 92.5 L 256 109.5 L 256 130.5 L 243.5 142 L 201.5 100 L 195.5 97 L 188.5 97 L 180 102.5 L 177 108.5 L 177 115.5 L 180 121.5 L 234 175.5 L 189.5 176 L 175.5 173 L 158.5 166 L 141 154 Q 142.1 151.3 139.5 152 L 135.5 147 Q 133.3 147.8 134 145.5 Q 118.4 130.1 113 104.5 Q 114.3 99.8 112 98.5 L 112 42.5 L 116 35 L 122.5 32 Z " /><path fill="rgb(202,229,87)" stroke="rgb(202,229,87)" stroke-width="1" opacity="0.9882352941176471" d="M 10.5 241 L 98.5 241 L 99 242.5 L 101 248.5 L 101 253.5 L 105 269.5 L 109 294.5 L 110.5 296 L 144.5 318 L 152 324.5 Q 157.4 330.6 159 340.5 L 159 391.5 L 153 406.5 L 138 431.5 L 130.5 441 Q 124.8 446.3 115.5 448 L 86.5 449 Q 45.1 413.4 21 360.5 L 10 330.5 L 3 301.5 L 3 295.5 L 1 288.5 L 1 278.5 L 0 277.5 L 0 251.5 L 4 244 L 10.5 241 Z " /><path fill="rgb(202,229,87)" stroke="rgb(202,229,87)" stroke-width="1" opacity="0.9882352941176471" d="M 255.5 320 L 256 418.5 L 251 414.5 L 228 378.5 Q 225.3 372.3 227 361.5 L 233 349.5 L 255.5 320 Z " /><path fill="rgb(94,203,241)" stroke="rgb(94,203,241)" stroke-width="1" opacity="1" d="M 100 241 L 256 241 L 256 318.5 L 230 353.5 Q 225.4 360.4 226 372.5 L 231 385.5 L 247 409.5 L 256 419.5 L 256 512 L 249.5 512 L 248.5 511 L 232.5 511 L 231.5 510 L 210.5 508 L 184.5 502 L 166.5 496 Q 121.5 479 89 449.5 L 117.5 448 Q 128.6 444.6 135 436.5 L 154 405.5 L 159 393.5 L 159 338.5 Q 156 326.5 147.5 320 L 109 293.5 L 100 241 Z " /><path fill="rgb(94,203,241)" stroke="rgb(94,203,241)" stroke-width="1" opacity="1" d="M 438.5 311 L 439 313.5 L 438 313.5 L 438.5 311 Z " /><path fill="rgb(94,203,241)" stroke="rgb(94,203,241)" stroke-width="1" opacity="1" d="M 270.5 425 L 278 425.5 L 270.5 426 L 270.5 425 Z " /></svg>