<svg width="512" height="512" version="1.1" xmlns="http://www.w3.org/2000/svg" desc="Created with imagetracer.js version 1.2.6" ><path fill="rgb(131,211,241)" stroke="rgb(131,211,241)" stroke-width="1" opacity="0.43137254901960786" d="M 254.5 0 L 256.5 0 L 407 150.5 Q 426.1 169.9 440 194.5 L 438 193.5 Q 428.7 174.8 415 160.5 L 255.5 1 L 95.5 160 L 254.5 0 Z " /><path fill="rgb(131,211,241)" stroke="rgb(131,211,241)" stroke-width="1" opacity="0.43137254901960786" d="M 93.5 162 L 90.5 166 L 93.5 162 Z " /><path fill="rgb(131,211,241)" stroke="rgb(131,211,241)" stroke-width="1" opacity="0.43137254901960786" d="M 89.5 167 L 87.5 170 L 89.5 167 Z " /><path fill="rgb(131,211,241)" stroke="rgb(131,211,241)" stroke-width="1" opacity="0.43137254901960786" d="M 86.5 171 L 83.5 175 L 86.5 171 Z " /><path fill="rgb(131,211,241)" stroke="rgb(131,211,241)" stroke-width="1" opacity="0.43137254901960786" d="M 82.5 176 L 81.5 178 L 82.5 176 Z " /><path fill="rgb(131,211,241)" stroke="rgb(131,211,241)" stroke-width="1" opacity="0.43137254901960786" d="M 80.5 179 L 79.5 181 L 80.5 179 Z " /><path fill="rgb(131,211,241)" stroke="rgb(131,211,241)" stroke-width="1" opacity="0.43137254901960786" d="M 78.5 182 L 77.5 184 L 78.5 182 Z " /><path fill="rgb(131,211,241)" stroke="rgb(131,211,241)" stroke-width="1" opacity="0.43137254901960786" d="M 76.5 185 L 75.5 187 L 76.5 185 Z " /><path fill="rgb(131,211,241)" stroke="rgb(131,211,241)" stroke-width="1" opacity="0.43137254901960786" d="M 74.5 188 L 74 189.5 L 72.5 192 L 73 190.5 L 74.5 188 Z " /><path fill="rgb(131,211,241)" stroke="rgb(131,211,241)" stroke-width="1" opacity="0.43137254901960786" d="M 70.5 195 L 70 196.5 L 68.5 199 L 69 197.5 L 70.5 195 Z " /><path fill="rgb(131,211,241)" stroke="rgb(131,211,241)" stroke-width="1" opacity="0.43137254901960786" d="M 440.5 196 L 450 214.5 L 449 214.5 L 440.5 196 Z " /><path fill="rgb(131,211,241)" stroke="rgb(131,211,241)" stroke-width="1" opacity="0.43137254901960786" d="M 450.5 216 L 453 222.5 L 452 222.5 L 450.5 216 Z " /><path fill="rgb(131,211,241)" stroke="rgb(131,211,241)" stroke-width="1" opacity="0.43137254901960786" d="M 453.5 224 L 455 227.5 L 454 227.5 L 453.5 224 Z " /><path fill="rgb(131,211,241)" stroke="rgb(131,211,241)" stroke-width="1" opacity="0.43137254901960786" d="M 455.5 229 L 458 236.5 L 457 236.5 L 455.5 229 Z " /><path fill="rgb(131,211,241)" stroke="rgb(131,211,241)" stroke-width="1" opacity="0.43137254901960786" d="M 458.5 238 L 459 240.5 L 458 240.5 L 458.5 238 Z " /><path fill="rgb(131,211,241)" stroke="rgb(131,211,241)" stroke-width="1" opacity="0.43137254901960786" d="M 460.5 245 L 461 247.5 L 460 247.5 L 460.5 245 Z " /><path fill="rgb(131,211,241)" stroke="rgb(131,211,241)" stroke-width="1" opacity="0.43137254901960786" d="M 352.5 246 L 357 246.5 L 352.5 247 L 352.5 246 Z " /><path fill="rgb(131,211,241)" stroke="rgb(131,211,241)" stroke-width="1" opacity="0.43137254901960786" d="M 334.5 247 L 346 247.5 L 334.5 248 L 334.5 247 Z " /><path fill="rgb(131,211,241)" stroke="rgb(131,211,241)" stroke-width="1" opacity="0.43137254901960786" d="M 366.5 247 L 375 247.5 L 366.5 248 L 366.5 247 Z " /><path fill="rgb(131,211,241)" stroke="rgb(131,211,241)" stroke-width="1" opacity="0.43137254901960786" d="M 327.5 248 L 333 248.5 L 327.5 249 L 327.5 248 Z " /><path fill="rgb(131,211,241)" stroke="rgb(131,211,241)" stroke-width="1" opacity="0.43137254901960786" d="M 377.5 248 L 382 248.5 L 377.5 249 L 377.5 248 Z " /><path fill="rgb(131,211,241)" stroke="rgb(131,211,241)" stroke-width="1" opacity="0.43137254901960786" d="M 321.5 249 L 325 249.5 L 321.5 250 L 321.5 249 Z " /><path fill="rgb(131,211,241)" stroke="rgb(131,211,241)" stroke-width="1" opacity="0.43137254901960786" d="M 384.5 249 L 388 249.5 L 384.5 250 L 384.5 249 Z " /><path fill="rgb(131,211,241)" stroke="rgb(131,211,241)" stroke-width="1" opacity="0.43137254901960786" d="M 461.5 249 L 462 251.5 L 461 251.5 L 461.5 249 Z " /><path fill="rgb(131,211,241)" stroke="rgb(131,211,241)" stroke-width="1" opacity="0.43137254901960786" d="M 316.5 250 L 320 250.5 L 316.5 251 L 316.5 250 Z " /><path fill="rgb(131,211,241)" stroke="rgb(131,211,241)" stroke-width="1" opacity="0.43137254901960786" d="M 389.5 250 L 393 250.5 L 389.5 251 L 389.5 250 Z " /><path fill="rgb(131,211,241)" stroke="rgb(131,211,241)" stroke-width="1" opacity="0.43137254901960786" d="M 312.5 251 L 315 251.5 L 312.5 252 L 312.5 251 Z " /><path fill="rgb(131,211,241)" stroke="rgb(131,211,241)" stroke-width="1" opacity="0.43137254901960786" d="M 308.5 252 L 311 252.5 L 308.5 253 L 308.5 252 Z " /><path fill="rgb(131,211,241)" stroke="rgb(131,211,241)" stroke-width="1" opacity="0.43137254901960786" d="M 397.5 252 L 403 253.5 L 400.5 254 L 397.5 253 L 397.5 252 Z " /><path fill="rgb(131,211,241)" stroke="rgb(131,211,241)" stroke-width="1" opacity="0.43137254901960786" d="M 305.5 253 L 307 253.5 L 290.5 260 L 290.5 259 L 305.5 253 Z " /><path fill="rgb(131,211,241)" stroke="rgb(131,211,241)" stroke-width="1" opacity="0.43137254901960786" d="M 462.5 253 L 463 256.5 L 462 256.5 L 462.5 253 Z " /><path fill="rgb(131,211,241)" stroke="rgb(131,211,241)" stroke-width="1" opacity="0.43137254901960786" d="M 404.5 254 L 409 255.5 L 407.5 256 L 404.5 255 L 404.5 254 Z " /><path fill="rgb(131,211,241)" stroke="rgb(131,211,241)" stroke-width="1" opacity="0.43137254901960786" d="M 410.5 256 L 432.5 266 L 437 269.5 L 435.5 269 L 410.5 257 L 410.5 256 Z " /><path fill="rgb(131,211,241)" stroke="rgb(131,211,241)" stroke-width="1" opacity="0.43137254901960786" d="M 463.5 258 L 464 261.5 L 463 261.5 L 463.5 258 Z " /><path fill="rgb(131,211,241)" stroke="rgb(131,211,241)" stroke-width="1" opacity="0.43137254901960786" d="M 46.5 260 L 47 262.5 L 46 262.5 L 46.5 260 Z " /><path fill="rgb(131,211,241)" stroke="rgb(131,211,241)" stroke-width="1" opacity="0.43137254901960786" d="M 287.5 260 L 289 260.5 L 282.5 264 L 283.5 262 L 287.5 260 Z " /><path fill="rgb(131,211,241)" stroke="rgb(131,211,241)" stroke-width="1" opacity="0.43137254901960786" d="M 464.5 263 L 465 267.5 L 464 267.5 L 464.5 263 Z " /><path fill="rgb(131,211,241)" stroke="rgb(131,211,241)" stroke-width="1" opacity="0.43137254901960786" d="M 280.5 264 L 279.5 266 L 266.5 273 L 233.5 295 L 218.5 302 L 218.5 301 L 233.5 294 L 280.5 264 Z " /><path fill="rgb(131,211,241)" stroke="rgb(131,211,241)" stroke-width="1" opacity="0.43137254901960786" d="M 45.5 266 L 46 268.5 L 45 268.5 L 45.5 266 Z " /><path fill="rgb(131,211,241)" stroke="rgb(131,211,241)" stroke-width="1" opacity="0.43137254901960786" d="M 465.5 269 L 466 275.5 L 465 275.5 L 465.5 269 Z " /><path fill="rgb(131,211,241)" stroke="rgb(131,211,241)" stroke-width="1" opacity="0.43137254901960786" d="M 438.5 270 L 454 280.5 L 452.5 280 L 439.5 272 L 438.5 270 Z " /><path fill="rgb(131,211,241)" stroke="rgb(131,211,241)" stroke-width="1" opacity="0.43137254901960786" d="M 45.5 272 L 46.5 274 L 45.5 272 Z " /><path fill="rgb(131,211,241)" stroke="rgb(131,211,241)" stroke-width="1" opacity="0.43137254901960786" d="M 48.5 274 L 49.5 276 L 48.5 274 Z " /><path fill="rgb(131,211,241)" stroke="rgb(131,211,241)" stroke-width="1" opacity="0.43137254901960786" d="M 51.5 276 L 52.5 278 L 51.5 276 Z " /><path fill="rgb(131,211,241)" stroke="rgb(131,211,241)" stroke-width="1" opacity="0.43137254901960786" d="M 54.5 278 L 55.5 280 L 54.5 278 Z " /><path fill="rgb(131,211,241)" stroke="rgb(131,211,241)" stroke-width="1" opacity="0.43137254901960786" d="M 466.5 278 L 467 285.5 L 466 285.5 L 466.5 278 Z " /><path fill="rgb(131,211,241)" stroke="rgb(131,211,241)" stroke-width="1" opacity="0.43137254901960786" d="M 57.5 280 L 58.5 282 L 57.5 280 Z " /><path fill="rgb(131,211,241)" stroke="rgb(131,211,241)" stroke-width="1" opacity="0.43137254901960786" d="M 455.5 281 L 456.5 283 L 455.5 281 Z " /><path fill="rgb(131,211,241)" stroke="rgb(131,211,241)" stroke-width="1" opacity="0.43137254901960786" d="M 60.5 282 L 61.5 284 L 60.5 282 Z " /><path fill="rgb(131,211,241)" stroke="rgb(131,211,241)" stroke-width="1" opacity="0.43137254901960786" d="M 458.5 283 L 459.5 285 L 458.5 283 Z " /><path fill="rgb(131,211,241)" stroke="rgb(131,211,241)" stroke-width="1" opacity="0.43137254901960786" d="M 63.5 284 L 64.5 286 L 63.5 284 Z " /><path fill="rgb(131,211,241)" stroke="rgb(131,211,241)" stroke-width="1" opacity="0.43137254901960786" d="M 461.5 285 L 462.5 287 L 461.5 285 Z " /><path fill="rgb(131,211,241)" stroke="rgb(131,211,241)" stroke-width="1" opacity="0.43137254901960786" d="M 66.5 286 L 67.5 288 L 66.5 286 Z " /><path fill="rgb(131,211,241)" stroke="rgb(131,211,241)" stroke-width="1" opacity="0.43137254901960786" d="M 464.5 287 L 467 288.5 L 465.5 289 L 464.5 287 Z " /><path fill="rgb(131,211,241)" stroke="rgb(131,211,241)" stroke-width="1" opacity="0.43137254901960786" d="M 69.5 288 L 73 290.5 L 71.5 290 L 69.5 288 Z " /><path fill="rgb(131,211,241)" stroke="rgb(131,211,241)" stroke-width="1" opacity="0.43137254901960786" d="M 74.5 291 L 75.5 293 L 74.5 291 Z " /><path fill="rgb(131,211,241)" stroke="rgb(131,211,241)" stroke-width="1" opacity="0.43137254901960786" d="M 79.5 294 L 83 296.5 L 81.5 296 L 79.5 294 Z " /><path fill="rgb(131,211,241)" stroke="rgb(131,211,241)" stroke-width="1" opacity="0.43137254901960786" d="M 90.5 300 L 94 301.5 L 92.5 302 L 90.5 300 Z " /><path fill="rgb(131,211,241)" stroke="rgb(131,211,241)" stroke-width="1" opacity="0.43137254901960786" d="M 210.5 304 L 212 304.5 L 201.5 308 L 201.5 307 L 210.5 304 Z " /><path fill="rgb(131,211,241)" stroke="rgb(131,211,241)" stroke-width="1" opacity="0.43137254901960786" d="M 109.5 307 L 112 307.5 L 109.5 308 L 109.5 307 Z " /><path fill="rgb(131,211,241)" stroke="rgb(131,211,241)" stroke-width="1" opacity="0.43137254901960786" d="M 113.5 308 L 119 309.5 L 116.5 310 L 113.5 309 L 113.5 308 Z " /><path fill="rgb(131,211,241)" stroke="rgb(131,211,241)" stroke-width="1" opacity="0.43137254901960786" d="M 197.5 308 L 200 308.5 L 197.5 309 L 197.5 308 Z " /><path fill="rgb(131,211,241)" stroke="rgb(131,211,241)" stroke-width="1" opacity="0.43137254901960786" d="M 192.5 309 L 196 309.5 L 188.5 311 L 188.5 310 L 192.5 309 Z " /><path fill="rgb(131,211,241)" stroke="rgb(131,211,241)" stroke-width="1" opacity="0.43137254901960786" d="M 121.5 310 L 125 310.5 L 121.5 311 L 121.5 310 Z " /><path fill="rgb(131,211,241)" stroke="rgb(131,211,241)" stroke-width="1" opacity="0.43137254901960786" d="M 126.5 311 L 131 311.5 L 126.5 312 L 126.5 311 Z " /><path fill="rgb(131,211,241)" stroke="rgb(131,211,241)" stroke-width="1" opacity="0.43137254901960786" d="M 181.5 311 L 186 311.5 L 181.5 312 L 181.5 311 Z " /><path fill="rgb(131,211,241)" stroke="rgb(131,211,241)" stroke-width="1" opacity="0.43137254901960786" d="M 133.5 312 L 140 312.5 L 133.5 313 L 133.5 312 Z " /><path fill="rgb(131,211,241)" stroke="rgb(131,211,241)" stroke-width="1" opacity="0.43137254901960786" d="M 173.5 312 L 179 312.5 L 173.5 313 L 173.5 312 Z " /><path fill="rgb(131,211,241)" stroke="rgb(131,211,241)" stroke-width="1" opacity="0.43137254901960786" d="M 144.5 313 L 166 313.5 L 144.5 314 L 144.5 313 Z " /><path fill="rgb(0,0,0)" stroke="rgb(0,0,0)" stroke-width="1" opacity="0" d="M 0 0 L 254 0.5 L 95 159.5 L 83 174.5 Q 66.7 196.7 56 224.5 L 47 255.5 L 45 272.5 L 80.5 296 L 102.5 306 L 133.5 313 L 165.5 314 L 166.5 313 L 178.5 313 L 179.5 312 L 191.5 311 L 219.5 302 L 238.5 292 L 281.5 264 L 307.5 253 L 333.5 248 L 365.5 247 L 366.5 248 L 376.5 248 L 393.5 251 L 409.5 256 L 432.5 267 L 467 289 L 465 263.5 L 458 234.5 L 450 213.5 L 431 179.5 L 407 150.5 L 257 0.5 L 512 0 L 512 512 L 276.5 512 L 276.5 511 L 296.5 509 L 316.5 504 Q 337.5 497.5 355.5 488 Q 391.3 468.3 417 438.5 Q 436.6 415.6 450 386.5 L 460 358.5 L 463 344.5 Q 438.6 324.4 406.5 312 L 392.5 308 L 381.5 307 L 374.5 305 L 356.5 305 L 353.5 304 L 352.5 305 L 335.5 305 L 334.5 306 L 320.5 307 L 296.5 314 L 272.5 326 L 231.5 353 Q 217.6 361.1 200.5 366 L 172.5 371 L 140.5 371 L 139.5 370 L 131.5 370 L 130.5 369 L 119.5 368 L 90.5 358 Q 66.4 345.6 45.5 330 L 45 333.5 L 48 349.5 L 56 375.5 L 68 401.5 Q 86.3 434.7 113.5 459 Q 137.6 480.9 169.5 495 Q 197.5 507.5 234 511.5 L 0 512 L 0 0 Z " /><path fill="rgb(104,185,218)" stroke="rgb(104,185,218)" stroke-width="1" opacity="0.9882352941176471" d="M 253.5 2 L 251 5.5 L 152 151.5 L 133 186.5 L 121 221.5 L 116 243.5 L 114 262.5 L 113 263.5 L 113 272.5 L 112 273.5 L 111 307 L 101.5 305 L 83.5 297 L 45 271.5 L 47 257.5 L 57 223.5 Q 67.4 196.9 83 175.5 L 94 161.5 L 253.5 2 Z " /><path fill="rgb(127,209,237)" stroke="rgb(127,209,237)" stroke-width="1" opacity="0.996078431372549" d="M 253.5 3 L 251.5 6 L 253.5 3 Z " /><path fill="rgb(127,209,237)" stroke="rgb(127,209,237)" stroke-width="1" opacity="0.996078431372549" d="M 250.5 7 L 249.5 9 L 250.5 7 Z " /><path fill="rgb(127,209,237)" stroke="rgb(127,209,237)" stroke-width="1" opacity="0.996078431372549" d="M 248.5 10 L 247.5 12 L 248.5 10 Z " /><path fill="rgb(127,209,237)" stroke="rgb(127,209,237)" stroke-width="1" opacity="0.996078431372549" d="M 246.5 13 L 245.5 15 L 246.5 13 Z " /><path fill="rgb(127,209,237)" stroke="rgb(127,209,237)" stroke-width="1" opacity="0.996078431372549" d="M 244.5 16 L 243.5 18 L 244.5 16 Z " /><path fill="rgb(127,209,237)" stroke="rgb(127,209,237)" stroke-width="1" opacity="0.996078431372549" d="M 242.5 19 L 241.5 21 L 242.5 19 Z " /><path fill="rgb(127,209,237)" stroke="rgb(127,209,237)" stroke-width="1" opacity="0.996078431372549" d="M 240.5 22 L 239.5 24 L 240.5 22 Z " /><path fill="rgb(127,209,237)" stroke="rgb(127,209,237)" stroke-width="1" opacity="0.996078431372549" d="M 238.5 25 L 237.5 27 L 238.5 25 Z " /><path fill="rgb(127,209,237)" stroke="rgb(127,209,237)" stroke-width="1" opacity="0.996078431372549" d="M 236.5 28 L 234.5 31 L 236.5 28 Z " /><path fill="rgb(127,209,237)" stroke="rgb(127,209,237)" stroke-width="1" opacity="0.996078431372549" d="M 233.5 32 L 232.5 34 L 233.5 32 Z " /><path fill="rgb(127,209,237)" stroke="rgb(127,209,237)" stroke-width="1" opacity="0.996078431372549" d="M 231.5 35 L 230.5 37 L 231.5 35 Z " /><path fill="rgb(127,209,237)" stroke="rgb(127,209,237)" stroke-width="1" opacity="0.996078431372549" d="M 229.5 38 L 228.5 40 L 229.5 38 Z " /><path fill="rgb(127,209,237)" stroke="rgb(127,209,237)" stroke-width="1" opacity="0.996078431372549" d="M 227.5 41 L 226.5 43 L 227.5 41 Z " /><path fill="rgb(127,209,237)" stroke="rgb(127,209,237)" stroke-width="1" opacity="0.996078431372549" d="M 225.5 44 L 224.5 46 L 225.5 44 Z " /><path fill="rgb(127,209,237)" stroke="rgb(127,209,237)" stroke-width="1" opacity="0.996078431372549" d="M 223.5 47 L 222.5 49 L 223.5 47 Z " /><path fill="rgb(127,209,237)" stroke="rgb(127,209,237)" stroke-width="1" opacity="0.996078431372549" d="M 221.5 50 L 220.5 52 L 221.5 50 Z " /><path fill="rgb(127,209,237)" stroke="rgb(127,209,237)" stroke-width="1" opacity="0.996078431372549" d="M 219.5 53 L 217.5 56 L 219.5 53 Z " /><path fill="rgb(127,209,237)" stroke="rgb(127,209,237)" stroke-width="1" opacity="0.996078431372549" d="M 216.5 57 L 215.5 59 L 216.5 57 Z " /><path fill="rgb(127,209,237)" stroke="rgb(127,209,237)" stroke-width="1" opacity="0.996078431372549" d="M 214.5 60 L 213.5 62 L 214.5 60 Z " /><path fill="rgb(127,209,237)" stroke="rgb(127,209,237)" stroke-width="1" opacity="0.996078431372549" d="M 212.5 63 L 211.5 65 L 212.5 63 Z " /><path fill="rgb(127,209,237)" stroke="rgb(127,209,237)" stroke-width="1" opacity="0.996078431372549" d="M 210.5 66 L 209.5 68 L 210.5 66 Z " /><path fill="rgb(127,209,237)" stroke="rgb(127,209,237)" stroke-width="1" opacity="0.996078431372549" d="M 208.5 69 L 207.5 71 L 208.5 69 Z " /><path fill="rgb(127,209,237)" stroke="rgb(127,209,237)" stroke-width="1" opacity="0.996078431372549" d="M 206.5 72 L 205.5 74 L 206.5 72 Z " /><path fill="rgb(127,209,237)" stroke="rgb(127,209,237)" stroke-width="1" opacity="0.996078431372549" d="M 204.5 75 L 203.5 77 L 204.5 75 Z " /><path fill="rgb(127,209,237)" stroke="rgb(127,209,237)" stroke-width="1" opacity="0.996078431372549" d="M 202.5 78 L 200.5 81 L 202.5 78 Z " /><path fill="rgb(127,209,237)" stroke="rgb(127,209,237)" stroke-width="1" opacity="0.996078431372549" d="M 199.5 82 L 198.5 84 L 199.5 82 Z " /><path fill="rgb(127,209,237)" stroke="rgb(127,209,237)" stroke-width="1" opacity="0.996078431372549" d="M 197.5 85 L 196.5 87 L 197.5 85 Z " /><path fill="rgb(127,209,237)" stroke="rgb(127,209,237)" stroke-width="1" opacity="0.996078431372549" d="M 195.5 88 L 194.5 90 L 195.5 88 Z " /><path fill="rgb(127,209,237)" stroke="rgb(127,209,237)" stroke-width="1" opacity="0.996078431372549" d="M 193.5 91 L 192.5 93 L 193.5 91 Z " /><path fill="rgb(127,209,237)" stroke="rgb(127,209,237)" stroke-width="1" opacity="0.996078431372549" d="M 191.5 94 L 190.5 96 L 191.5 94 Z " /><path fill="rgb(127,209,237)" stroke="rgb(127,209,237)" stroke-width="1" opacity="0.996078431372549" d="M 189.5 97 L 188.5 99 L 189.5 97 Z " /><path fill="rgb(127,209,237)" stroke="rgb(127,209,237)" stroke-width="1" opacity="0.996078431372549" d="M 187.5 100 L 186.5 102 L 187.5 100 Z " /><path fill="rgb(127,209,237)" stroke="rgb(127,209,237)" stroke-width="1" opacity="0.996078431372549" d="M 185.5 103 L 183.5 106 L 185.5 103 Z " /><path fill="rgb(127,209,237)" stroke="rgb(127,209,237)" stroke-width="1" opacity="0.996078431372549" d="M 182.5 107 L 181.5 109 L 182.5 107 Z " /><path fill="rgb(127,209,237)" stroke="rgb(127,209,237)" stroke-width="1" opacity="0.996078431372549" d="M 180.5 110 L 179.5 112 L 180.5 110 Z " /><path fill="rgb(127,209,237)" stroke="rgb(127,209,237)" stroke-width="1" opacity="0.996078431372549" d="M 178.5 113 L 177.5 115 L 178.5 113 Z " /><path fill="rgb(127,209,237)" stroke="rgb(127,209,237)" stroke-width="1" opacity="0.996078431372549" d="M 176.5 116 L 175.5 118 L 176.5 116 Z " /><path fill="rgb(127,209,237)" stroke="rgb(127,209,237)" stroke-width="1" opacity="0.996078431372549" d="M 174.5 119 L 173.5 121 L 174.5 119 Z " /><path fill="rgb(127,209,237)" stroke="rgb(127,209,237)" stroke-width="1" opacity="0.996078431372549" d="M 172.5 122 L 171.5 124 L 172.5 122 Z " /><path fill="rgb(127,209,237)" stroke="rgb(127,209,237)" stroke-width="1" opacity="0.996078431372549" d="M 170.5 125 L 169.5 127 L 170.5 125 Z " /><path fill="rgb(127,209,237)" stroke="rgb(127,209,237)" stroke-width="1" opacity="0.996078431372549" d="M 168.5 128 L 166.5 131 L 168.5 128 Z " /><path fill="rgb(127,209,237)" stroke="rgb(127,209,237)" stroke-width="1" opacity="0.996078431372549" d="M 165.5 132 L 164.5 134 L 165.5 132 Z " /><path fill="rgb(127,209,237)" stroke="rgb(127,209,237)" stroke-width="1" opacity="0.996078431372549" d="M 163.5 135 L 162.5 137 L 163.5 135 Z " /><path fill="rgb(127,209,237)" stroke="rgb(127,209,237)" stroke-width="1" opacity="0.996078431372549" d="M 161.5 138 L 160.5 140 L 161.5 138 Z " /><path fill="rgb(127,209,237)" stroke="rgb(127,209,237)" stroke-width="1" opacity="0.996078431372549" d="M 159.5 141 L 158.5 143 L 159.5 141 Z " /><path fill="rgb(127,209,237)" stroke="rgb(127,209,237)" stroke-width="1" opacity="0.996078431372549" d="M 157.5 144 L 156.5 146 L 157.5 144 Z " /><path fill="rgb(127,209,237)" stroke="rgb(127,209,237)" stroke-width="1" opacity="0.996078431372549" d="M 155.5 147 L 154.5 149 L 155.5 147 Z " /><path fill="rgb(127,209,237)" stroke="rgb(127,209,237)" stroke-width="1" opacity="0.996078431372549" d="M 153.5 150 L 152.5 152 L 153.5 150 Z " /><path fill="rgb(127,209,237)" stroke="rgb(127,209,237)" stroke-width="1" opacity="0.996078431372549" d="M 150.5 155 L 149.5 157 L 150.5 155 Z " /><path fill="rgb(127,209,237)" stroke="rgb(127,209,237)" stroke-width="1" opacity="0.996078431372549" d="M 148.5 158 L 147.5 160 L 148.5 158 Z " /><path fill="rgb(127,209,237)" stroke="rgb(127,209,237)" stroke-width="1" opacity="0.996078431372549" d="M 412.5 158 L 413.5 160 L 412.5 158 Z " /><path fill="rgb(127,209,237)" stroke="rgb(127,209,237)" stroke-width="1" opacity="0.996078431372549" d="M 145.5 163 L 144.5 165 L 145.5 163 Z " /><path fill="rgb(127,209,237)" stroke="rgb(127,209,237)" stroke-width="1" opacity="0.996078431372549" d="M 119.5 229 L 120 231.5 L 119 231.5 L 119.5 229 Z " /><path fill="rgb(127,209,237)" stroke="rgb(127,209,237)" stroke-width="1" opacity="0.996078431372549" d="M 117.5 238 L 118 240.5 L 117 240.5 L 117.5 238 Z " /><path fill="rgb(127,209,237)" stroke="rgb(127,209,237)" stroke-width="1" opacity="0.996078431372549" d="M 116.5 243 L 117 245.5 L 116 245.5 L 116.5 243 Z " /><path fill="rgb(127,209,237)" stroke="rgb(127,209,237)" stroke-width="1" opacity="0.996078431372549" d="M 115.5 249 L 116 251.5 L 115 251.5 L 115.5 249 Z " /><path fill="rgb(127,209,237)" stroke="rgb(127,209,237)" stroke-width="1" opacity="0.996078431372549" d="M 114.5 256 L 115 258.5 L 114 258.5 L 114.5 256 Z " /><path fill="rgb(127,209,237)" stroke="rgb(127,209,237)" stroke-width="1" opacity="0.996078431372549" d="M 113.5 263 L 114 266.5 L 113 266.5 L 113.5 263 Z " /><path fill="rgb(127,209,237)" stroke="rgb(127,209,237)" stroke-width="1" opacity="0.996078431372549" d="M 112.5 273 L 113 279.5 L 112 279.5 L 112.5 273 Z " /><path fill="rgb(127,209,237)" stroke="rgb(127,209,237)" stroke-width="1" opacity="0.996078431372549" d="M 447.5 275 L 448.5 277 L 447.5 275 Z " /><path fill="rgb(127,209,237)" stroke="rgb(127,209,237)" stroke-width="1" opacity="0.996078431372549" d="M 111.5 287 L 112 306.5 L 111 306.5 L 111.5 287 Z " /><path fill="rgb(128,210,238)" stroke="rgb(128,210,238)" stroke-width="1" opacity="1" d="M 255.5 1 L 410 155.5 L 410 157 Q 412.7 155.9 412 158.5 L 415 160 L 432 182.5 L 450 215.5 L 462 252.5 L 465 269.5 L 465 276.5 L 466 277.5 L 466 285.5 L 467 286.5 Q 465.8 289.3 464.5 287 Q 461.9 287.7 463 285 L 460 285 L 460 283 L 457.5 283 Q 437.8 266.7 412.5 256 L 392.5 250 L 375.5 247 L 366.5 247 L 365.5 246 L 361.5 247 L 356.5 246 L 334.5 247 L 333.5 248 L 331.5 248 L 326.5 248 L 320.5 250 L 318.5 250 L 301.5 254 L 277.5 265 L 241.5 289 L 215.5 303 Q 206.4 303.9 200.5 308 L 171.5 313 L 165.5 313 L 140.5 313 L 132.5 311 L 130.5 311 Q 123.8 311.7 120.5 309 L 118.5 309 L 112 308 L 112 280.5 L 113 279.5 L 113 267.5 L 114 266.5 L 116 246.5 L 123 216.5 L 134 185.5 L 152 152.5 L 255.5 1 Z " /><path fill="rgb(158,218,113)" stroke="rgb(158,218,113)" stroke-width="1" opacity="0.49019607843137253" d="M 353.5 304 L 356 304.5 L 353.5 305 L 353.5 304 Z " /><path fill="rgb(158,218,113)" stroke="rgb(158,218,113)" stroke-width="1" opacity="0.49019607843137253" d="M 335.5 305 L 348 305.5 L 335.5 306 L 335.5 305 Z " /><path fill="rgb(158,218,113)" stroke="rgb(158,218,113)" stroke-width="1" opacity="0.49019607843137253" d="M 365.5 305 L 375 305.5 L 365.5 306 L 365.5 305 Z " /><path fill="rgb(158,218,113)" stroke="rgb(158,218,113)" stroke-width="1" opacity="0.49019607843137253" d="M 327.5 306 L 333 306.5 L 327.5 307 L 327.5 306 Z " /><path fill="rgb(158,218,113)" stroke="rgb(158,218,113)" stroke-width="1" opacity="0.49019607843137253" d="M 376.5 306 L 381 306.5 L 376.5 307 L 376.5 306 Z " /><path fill="rgb(158,218,113)" stroke="rgb(158,218,113)" stroke-width="1" opacity="0.49019607843137253" d="M 320.5 307 L 326 307.5 L 316.5 309 L 316.5 308 L 320.5 307 Z " /><path fill="rgb(158,218,113)" stroke="rgb(158,218,113)" stroke-width="1" opacity="0.49019607843137253" d="M 382.5 307 L 388 307.5 L 382.5 308 L 382.5 307 Z " /><path fill="rgb(158,218,113)" stroke="rgb(158,218,113)" stroke-width="1" opacity="0.49019607843137253" d="M 389.5 308 L 396 309.5 L 393.5 310 L 389.5 309 L 389.5 308 Z " /><path fill="rgb(158,218,113)" stroke="rgb(158,218,113)" stroke-width="1" opacity="0.49019607843137253" d="M 312.5 309 L 315 309.5 L 312.5 310 L 312.5 309 Z " /><path fill="rgb(158,218,113)" stroke="rgb(158,218,113)" stroke-width="1" opacity="0.49019607843137253" d="M 308.5 310 L 311 310.5 L 308.5 311 L 308.5 310 Z " /><path fill="rgb(158,218,113)" stroke="rgb(158,218,113)" stroke-width="1" opacity="0.49019607843137253" d="M 397.5 310 L 400 310.5 L 397.5 311 L 397.5 310 Z " /><path fill="rgb(158,218,113)" stroke="rgb(158,218,113)" stroke-width="1" opacity="0.49019607843137253" d="M 401.5 311 L 409 313.5 L 407.5 314 L 401.5 312 L 401.5 311 Z " /><path fill="rgb(158,218,113)" stroke="rgb(158,218,113)" stroke-width="1" opacity="0.49019607843137253" d="M 302.5 312 L 304 312.5 L 292.5 317 L 292.5 316 L 302.5 312 Z " /><path fill="rgb(158,218,113)" stroke="rgb(158,218,113)" stroke-width="1" opacity="0.49019607843137253" d="M 410.5 314 L 414 315.5 L 412.5 316 L 410.5 314 Z " /><path fill="rgb(158,218,113)" stroke="rgb(158,218,113)" stroke-width="1" opacity="0.49019607843137253" d="M 415.5 316 L 419 317.5 L 417.5 318 L 415.5 316 Z " /><path fill="rgb(158,218,113)" stroke="rgb(158,218,113)" stroke-width="1" opacity="0.49019607843137253" d="M 289.5 317 L 291 317.5 L 278.5 324 L 279.5 322 L 289.5 317 Z " /><path fill="rgb(158,218,113)" stroke="rgb(158,218,113)" stroke-width="1" opacity="0.49019607843137253" d="M 422.5 319 Q 444.7 329.8 463 344.5 L 462.5 347 L 460.5 343 L 432.5 325 L 423.5 321 L 422.5 319 Z " /><path fill="rgb(158,218,113)" stroke="rgb(158,218,113)" stroke-width="1" opacity="0.49019607843137253" d="M 276.5 324 L 275.5 326 L 232.5 353 L 233.5 351 L 276.5 324 Z " /><path fill="rgb(158,218,113)" stroke="rgb(158,218,113)" stroke-width="1" opacity="0.49019607843137253" d="M 45.5 330 L 46 333.5 L 45 333.5 L 45.5 330 Z " /><path fill="rgb(158,218,113)" stroke="rgb(158,218,113)" stroke-width="1" opacity="0.49019607843137253" d="M 47.5 331 L 48.5 333 L 47.5 331 Z " /><path fill="rgb(158,218,113)" stroke="rgb(158,218,113)" stroke-width="1" opacity="0.49019607843137253" d="M 50.5 333 L 51.5 335 L 50.5 333 Z " /><path fill="rgb(158,218,113)" stroke="rgb(158,218,113)" stroke-width="1" opacity="0.49019607843137253" d="M 53.5 335 L 54.5 337 L 53.5 335 Z " /><path fill="rgb(158,218,113)" stroke="rgb(158,218,113)" stroke-width="1" opacity="0.49019607843137253" d="M 46.5 336 L 47 339.5 L 46 339.5 L 46.5 336 Z " /><path fill="rgb(158,218,113)" stroke="rgb(158,218,113)" stroke-width="1" opacity="0.49019607843137253" d="M 56.5 337 L 57.5 339 L 56.5 337 Z " /><path fill="rgb(158,218,113)" stroke="rgb(158,218,113)" stroke-width="1" opacity="0.49019607843137253" d="M 59.5 339 L 60.5 341 L 59.5 339 Z " /><path fill="rgb(158,218,113)" stroke="rgb(158,218,113)" stroke-width="1" opacity="0.49019607843137253" d="M 47.5 341 L 48 344.5 L 47 344.5 L 47.5 341 Z " /><path fill="rgb(158,218,113)" stroke="rgb(158,218,113)" stroke-width="1" opacity="0.49019607843137253" d="M 62.5 341 L 66 343.5 L 64.5 343 L 62.5 341 Z " /><path fill="rgb(158,218,113)" stroke="rgb(158,218,113)" stroke-width="1" opacity="0.49019607843137253" d="M 67.5 344 L 68.5 346 L 67.5 344 Z " /><path fill="rgb(158,218,113)" stroke="rgb(158,218,113)" stroke-width="1" opacity="0.49019607843137253" d="M 70.5 346 L 71.5 348 L 70.5 346 Z " /><path fill="rgb(158,218,113)" stroke="rgb(158,218,113)" stroke-width="1" opacity="0.49019607843137253" d="M 48.5 347 L 49 349.5 L 48 349.5 L 48.5 347 Z " /><path fill="rgb(158,218,113)" stroke="rgb(158,218,113)" stroke-width="1" opacity="0.49019607843137253" d="M 73.5 348 L 77 350.5 L 75.5 350 L 73.5 348 Z " /><path fill="rgb(158,218,113)" stroke="rgb(158,218,113)" stroke-width="1" opacity="0.49019607843137253" d="M 461.5 348 L 462 350.5 L 461 350.5 L 461.5 348 Z " /><path fill="rgb(158,218,113)" stroke="rgb(158,218,113)" stroke-width="1" opacity="0.49019607843137253" d="M 78.5 351 L 86 355.5 L 84.5 355 Q 78.9 354.2 78.5 351 Z " /><path fill="rgb(158,218,113)" stroke="rgb(158,218,113)" stroke-width="1" opacity="0.49019607843137253" d="M 460.5 352 L 461 354.5 L 460 354.5 L 460.5 352 Z " /><path fill="rgb(158,218,113)" stroke="rgb(158,218,113)" stroke-width="1" opacity="0.49019607843137253" d="M 230.5 353 L 229.5 355 L 220.5 359 L 220.5 358 L 230.5 353 Z " /><path fill="rgb(158,218,113)" stroke="rgb(158,218,113)" stroke-width="1" opacity="0.49019607843137253" d="M 50.5 354 L 51 356.5 L 50 356.5 L 50.5 354 Z " /><path fill="rgb(158,218,113)" stroke="rgb(158,218,113)" stroke-width="1" opacity="0.49019607843137253" d="M 459.5 356 L 460 358.5 L 459 358.5 L 459.5 356 Z " /><path fill="rgb(158,218,113)" stroke="rgb(158,218,113)" stroke-width="1" opacity="0.49019607843137253" d="M 51.5 358 L 52 360.5 L 51 360.5 L 51.5 358 Z " /><path fill="rgb(158,218,113)" stroke="rgb(158,218,113)" stroke-width="1" opacity="0.49019607843137253" d="M 91.5 358 L 95 359.5 L 93.5 360 L 91.5 358 Z " /><path fill="rgb(158,218,113)" stroke="rgb(158,218,113)" stroke-width="1" opacity="0.49019607843137253" d="M 217.5 359 L 219 359.5 L 213.5 362 L 213.5 361 L 217.5 359 Z " /><path fill="rgb(158,218,113)" stroke="rgb(158,218,113)" stroke-width="1" opacity="0.49019607843137253" d="M 106.5 364 L 109 364.5 L 106.5 365 L 106.5 364 Z " /><path fill="rgb(158,218,113)" stroke="rgb(158,218,113)" stroke-width="1" opacity="0.49019607843137253" d="M 204.5 364 L 206 364.5 L 201.5 366 L 201.5 365 L 204.5 364 Z " /><path fill="rgb(158,218,113)" stroke="rgb(158,218,113)" stroke-width="1" opacity="0.49019607843137253" d="M 196.5 366 L 200 366.5 L 188.5 369 L 188.5 368 L 196.5 366 Z " /><path fill="rgb(158,218,113)" stroke="rgb(158,218,113)" stroke-width="1" opacity="0.49019607843137253" d="M 120.5 368 L 125 368.5 L 120.5 369 L 120.5 368 Z " /><path fill="rgb(158,218,113)" stroke="rgb(158,218,113)" stroke-width="1" opacity="0.49019607843137253" d="M 126.5 369 L 131 369.5 L 126.5 370 L 126.5 369 Z " /><path fill="rgb(158,218,113)" stroke="rgb(158,218,113)" stroke-width="1" opacity="0.49019607843137253" d="M 180.5 369 L 186 369.5 L 180.5 370 L 180.5 369 Z " /><path fill="rgb(158,218,113)" stroke="rgb(158,218,113)" stroke-width="1" opacity="0.49019607843137253" d="M 133.5 370 L 140 370.5 L 133.5 371 L 133.5 370 Z " /><path fill="rgb(158,218,113)" stroke="rgb(158,218,113)" stroke-width="1" opacity="0.49019607843137253" d="M 173.5 370 L 179 370.5 L 173.5 371 L 173.5 370 Z " /><path fill="rgb(158,218,113)" stroke="rgb(158,218,113)" stroke-width="1" opacity="0.49019607843137253" d="M 55.5 371 L 58 377.5 L 57 377.5 L 55.5 371 Z " /><path fill="rgb(158,218,113)" stroke="rgb(158,218,113)" stroke-width="1" opacity="0.49019607843137253" d="M 143.5 371 L 167 371.5 L 143.5 372 L 143.5 371 Z " /><path fill="rgb(158,218,113)" stroke="rgb(158,218,113)" stroke-width="1" opacity="0.49019607843137253" d="M 453.5 375 L 454 376.5 Q 433.4 427.9 394.5 461 Q 372.9 480.4 344.5 493 L 344.5 492 Q 386.8 472.8 415 439.5 Q 439.4 412.4 453.5 375 Z " /><path fill="rgb(158,218,113)" stroke="rgb(158,218,113)" stroke-width="1" opacity="0.49019607843137253" d="M 58.5 379 L 61 384.5 L 60 384.5 L 58.5 379 Z " /><path fill="rgb(158,218,113)" stroke="rgb(158,218,113)" stroke-width="1" opacity="0.49019607843137253" d="M 62.5 388 L 70 402.5 L 68 401.5 L 62 389.5 L 62.5 388 Z " /><path fill="rgb(158,218,113)" stroke="rgb(158,218,113)" stroke-width="1" opacity="0.49019607843137253" d="M 70.5 404 L 74 409.5 L 72 408.5 L 70.5 404 Z " /><path fill="rgb(158,218,113)" stroke="rgb(158,218,113)" stroke-width="1" opacity="0.49019607843137253" d="M 74.5 411 Q 90.5 437 112.5 457 Q 137.4 480.1 171 494.5 L 169.5 495 Q 127.7 476.3 99 444.5 Q 83.6 429.4 74.5 411 Z " /><path fill="rgb(158,218,113)" stroke="rgb(158,218,113)" stroke-width="1" opacity="0.49019607843137253" d="M 341.5 493 L 343 493.5 L 337.5 496 L 337.5 495 L 341.5 493 Z " /><path fill="rgb(158,218,113)" stroke="rgb(158,218,113)" stroke-width="1" opacity="0.49019607843137253" d="M 172.5 495 L 181 498.5 L 179.5 499 L 172.5 496 L 172.5 495 Z " /><path fill="rgb(158,218,113)" stroke="rgb(158,218,113)" stroke-width="1" opacity="0.49019607843137253" d="M 334.5 496 L 336 496.5 L 332.5 498 L 332.5 497 L 334.5 496 Z " /><path fill="rgb(158,218,113)" stroke="rgb(158,218,113)" stroke-width="1" opacity="0.49019607843137253" d="M 329.5 498 L 331 498.5 L 314.5 504 L 314.5 503 L 329.5 498 Z " /><path fill="rgb(158,218,113)" stroke="rgb(158,218,113)" stroke-width="1" opacity="0.49019607843137253" d="M 182.5 499 L 190 501.5 L 187.5 502 L 182.5 500 L 182.5 499 Z " /><path fill="rgb(158,218,113)" stroke="rgb(158,218,113)" stroke-width="1" opacity="0.49019607843137253" d="M 194.5 503 L 197 503.5 L 194.5 504 L 194.5 503 Z " /><path fill="rgb(158,218,113)" stroke="rgb(158,218,113)" stroke-width="1" opacity="0.49019607843137253" d="M 198.5 504 L 201 504.5 L 198.5 505 L 198.5 504 Z " /><path fill="rgb(158,218,113)" stroke="rgb(158,218,113)" stroke-width="1" opacity="0.49019607843137253" d="M 310.5 504 L 313 504.5 L 310.5 505 L 310.5 504 Z " /><path fill="rgb(158,218,113)" stroke="rgb(158,218,113)" stroke-width="1" opacity="0.49019607843137253" d="M 202.5 505 L 205 505.5 L 202.5 506 L 202.5 505 Z " /><path fill="rgb(158,218,113)" stroke="rgb(158,218,113)" stroke-width="1" opacity="0.49019607843137253" d="M 305.5 505 L 309 505.5 L 296.5 509 L 291.5 509 L 291.5 508 L 296.5 508 L 305.5 505 Z " /><path fill="rgb(158,218,113)" stroke="rgb(158,218,113)" stroke-width="1" opacity="0.49019607843137253" d="M 206.5 506 L 209 506.5 L 206.5 507 L 206.5 506 Z " /><path fill="rgb(158,218,113)" stroke="rgb(158,218,113)" stroke-width="1" opacity="0.49019607843137253" d="M 210.5 507 L 213 507.5 L 210.5 508 L 210.5 507 Z " /><path fill="rgb(158,218,113)" stroke="rgb(158,218,113)" stroke-width="1" opacity="0.49019607843137253" d="M 214.5 508 L 219 508.5 L 214.5 509 L 214.5 508 Z " /><path fill="rgb(158,218,113)" stroke="rgb(158,218,113)" stroke-width="1" opacity="0.49019607843137253" d="M 221.5 509 L 226 509.5 L 221.5 510 L 221.5 509 Z " /><path fill="rgb(158,218,113)" stroke="rgb(158,218,113)" stroke-width="1" opacity="0.49019607843137253" d="M 284.5 509 L 290 509.5 L 284.5 510 L 284.5 509 Z " /><path fill="rgb(158,218,113)" stroke="rgb(158,218,113)" stroke-width="1" opacity="0.49019607843137253" d="M 227.5 510 L 233 510.5 L 227.5 511 L 227.5 510 Z " /><path fill="rgb(158,218,113)" stroke="rgb(158,218,113)" stroke-width="1" opacity="0.49019607843137253" d="M 278.5 510 L 283 510.5 L 278.5 511 L 278.5 510 Z " /><path fill="rgb(158,218,113)" stroke="rgb(158,218,113)" stroke-width="1" opacity="0.49019607843137253" d="M 234.5 511 L 249 511.5 L 234.5 512 L 234.5 511 Z " /><path fill="rgb(158,218,113)" stroke="rgb(158,218,113)" stroke-width="1" opacity="0.49019607843137253" d="M 261.5 511 L 276 511.5 L 261.5 512 L 261.5 511 Z " /><path fill="rgb(144,198,102)" stroke="rgb(144,198,102)" stroke-width="1" opacity="0.9921568627450981" d="M 46.5 331 L 79.5 353 Q 97 363.2 119 368 L 125 391.5 L 141 429.5 Q 156.3 458.7 179.5 480 L 200.5 496 Q 215.8 505.7 237 509.5 L 228.5 510 L 194.5 503 L 172.5 495 L 155.5 487 Q 119.7 467.3 94 437.5 Q 72.5 413 59 380.5 L 50 353.5 L 46 334.5 L 46.5 331 Z " /><path fill="rgb(156,217,115)" stroke="rgb(156,217,115)" stroke-width="1" opacity="0.996078431372549" d="M 348.5 305 L 375.5 306 L 382.5 308 L 388.5 308 L 409.5 314 Q 438.8 326.2 462 344.5 L 459 359.5 L 454 374.5 L 441 402.5 Q 422.3 435.8 394.5 460 Q 367.7 483.7 331.5 498 L 296.5 508 L 284.5 509 L 277.5 511 L 249.5 512 L 238.5 510 L 233.5 511 L 233.5 510 L 237 509.5 Q 215.8 505.7 200.5 496 Q 182.5 485 169 469.5 Q 149.8 448.7 137 421.5 L 125 391.5 L 119 368.5 L 120.5 369 L 132.5 370 L 133.5 371 L 142.5 371 L 143.5 372 L 166.5 372 L 167.5 371 L 178.5 371 L 179.5 370 L 191.5 369 L 203.5 366 L 221.5 359 L 236.5 351 L 277.5 324 L 304.5 312 L 326.5 307 L 347.5 306 L 348.5 305 Z " /><path fill="rgb(156,217,115)" stroke="rgb(156,217,115)" stroke-width="1" opacity="0.996078431372549" d="M 85.5 426 L 86.5 428 L 85.5 426 Z " /><path fill="rgb(156,217,115)" stroke="rgb(156,217,115)" stroke-width="1" opacity="0.996078431372549" d="M 92.5 435 L 93.5 437 L 92.5 435 Z " /><path fill="rgb(156,217,115)" stroke="rgb(156,217,115)" stroke-width="1" opacity="0.996078431372549" d="M 101.5 445 L 112.5 457 L 101.5 445 Z " /><path fill="rgb(156,217,115)" stroke="rgb(156,217,115)" stroke-width="1" opacity="0.996078431372549" d="M 117.5 460 L 119.5 463 L 117.5 460 Z " /><path fill="rgb(156,217,115)" stroke="rgb(156,217,115)" stroke-width="1" opacity="0.996078431372549" d="M 123.5 465 L 124.5 467 L 123.5 465 Z " /><path fill="rgb(156,217,115)" stroke="rgb(156,217,115)" stroke-width="1" opacity="0.996078431372549" d="M 128.5 469 L 129.5 471 L 128.5 469 Z " /><path fill="rgb(156,217,115)" stroke="rgb(156,217,115)" stroke-width="1" opacity="0.996078431372549" d="M 219.5 508 L 222 508.5 L 219.5 509 L 219.5 508 Z " /></svg>